<svg width="64" height="64" viewBox="0 0 64 64" fill="none" xmlns="http://www.w3.org/2000/svg">
<rect width="64" height="64" rx="10" fill="white"/>
<mask id="mask0_1453_35" style="mask-type:luminance" maskUnits="userSpaceOnUse" x="6" y="6" width="52" height="52">
<path d="M58 6H6V58H58V6Z" fill="white"/>
</mask>
<g mask="url(#mask0_1453_35)">
<path d="M40.2236 25.2278H35.6582V25.8086H40.2236V25.2278Z" fill="#008641"/>
<path d="M43.1767 18.6223H36.4238V19.203H43.1767V18.6223Z" fill="#008641"/>
<path d="M22.9205 19.6039C21.9213 19.6039 21.0558 19.7594 20.3047 20.0307H34.9209C31.0626 19.1801 22.9205 19.6039 22.9205 19.6039Z" fill="#008641"/>
<path d="M42.9939 16.146H35.4062C35.6264 16.3278 35.7994 16.5258 35.9359 16.7268H43.079C43.0541 16.5273 43.0277 16.3337 42.9939 16.146Z" fill="#008641"/>
<path d="M43.1777 18.3766C43.1777 18.1787 43.1734 17.9865 43.166 17.7988H36.375C36.4293 18.0818 36.4307 18.2989 36.4278 18.3795H43.1792V18.3766H43.1777Z" fill="#008641"/>
<path d="M43.1082 16.9712H36.084C36.1911 17.1721 36.2659 17.3701 36.3158 17.552H43.1537C43.142 17.3525 43.1258 17.1604 43.1067 16.9712H43.1082Z" fill="#008641"/>
<path d="M43.1778 21.0996H18.4476C18.232 21.2814 18.0325 21.4765 17.8477 21.6803H43.1778V21.0996Z" fill="#008641"/>
<path d="M40.2236 26.8789H35.6582V27.4596H40.2236V26.8789Z" fill="#008641"/>
<path d="M40.2236 26.0537H35.6582V26.6345H40.2236V26.0537Z" fill="#008641"/>
<path d="M35.0449 24.8565H35.6581V24.9826H40.2236V24.4019H35.0449V24.8565Z" fill="#008641"/>
<path d="M29.9029 21.9431H41.9885C41.9885 21.9431 42.5534 21.9974 43.1783 22.2628V21.9255H17.6368C17.4828 22.1132 17.3391 22.3068 17.207 22.5062H29.9029V21.9416V21.9431Z" fill="#008641"/>
<path d="M40.2236 23.7068H35.0449V24.157H40.2236V23.7068Z" fill="#008641"/>
<path d="M43.178 20.2744H36.4251V20.5618C36.2549 20.4563 36.0437 20.3609 35.7987 20.2744H19.7212C19.3721 20.4415 19.0507 20.6381 18.7559 20.8551H43.1765V20.2744H43.178Z" fill="#008641"/>
<path d="M35.8118 9.4397H24.7619C23.4885 9.4397 22.6303 9.73007 22.0508 10.1231H38.5082C37.0485 9.47929 35.8118 9.4397 35.8118 9.4397Z" fill="#008641"/>
<path d="M43.1767 19.4482H36.4238V20.0289H43.1767V19.4482Z" fill="#008641"/>
<path d="M23.3198 25.2278H16.0037C15.9494 25.4229 15.8995 25.6165 15.8555 25.8086H22.2328C22.5262 25.5856 22.8842 25.3848 23.3184 25.2278H23.3198Z" fill="#008641"/>
<path d="M41.121 12.019H20.8669C20.8449 12.1789 20.8478 12.2786 20.8478 12.2786C20.8478 12.3901 20.8522 12.4971 20.8609 12.6013H41.5803C41.4335 12.3945 41.2795 12.2009 41.1196 12.0205L41.121 12.019Z" fill="#008641"/>
<path d="M21.9411 26.0537H15.8014C15.7604 26.2503 15.7237 26.4439 15.6914 26.6345H21.4554C21.586 26.4365 21.7445 26.24 21.9411 26.0537Z" fill="#008641"/>
<path d="M21.3109 26.8789H15.6539C15.6231 27.0768 15.5982 27.2719 15.5762 27.4596H21.0615C21.1216 27.2734 21.2023 27.0768 21.3109 26.8789Z" fill="#008641"/>
<path d="M42.8171 15.3198H32.9453C33.8784 15.3726 34.5635 15.5955 35.0652 15.9006H42.9506C42.911 15.7011 42.867 15.5075 42.8186 15.3198H42.8171Z" fill="#008641"/>
<path d="M40.2229 27.7034H35.6574V33.1016H35.0442V34.6737H29.9036V33.1016H25.1078C25.1078 33.1016 20.887 33.4858 20.887 28.614C20.887 28.614 20.8606 28.2269 20.9912 27.7019H15.5499C15.4076 29.1376 15.4912 30.1861 15.4912 30.1861C15.4912 37.7798 23.3048 37.9719 23.3048 37.9719H32.1746C35.942 37.9719 36.7327 35.3263 36.7327 35.3263C36.7327 37.4748 39.8018 37.7432 39.8018 37.7432C42.7946 37.7432 43.1775 35.2119 43.1775 35.2119V34.6752H40.2229V27.7034Z" fill="#008641"/>
<path d="M40.2641 11.1931H21.1175C21.0148 11.4043 20.9518 11.6037 20.9121 11.7739H40.8964C40.691 11.5612 40.4797 11.3676 40.2641 11.1931Z" fill="#008641"/>
<path d="M39.0117 10.3679H21.7371C21.5302 10.5542 21.3718 10.7521 21.25 10.9487H39.9447C39.6352 10.7228 39.3198 10.5307 39.0102 10.3679H39.0117Z" fill="#008641"/>
<path d="M29.9027 22.7507H17.0512C16.9354 22.9399 16.8283 23.135 16.7285 23.3315H29.9027V22.7507Z" fill="#008641"/>
<path d="M42.5636 14.4946H21.7461C22.0615 14.7703 22.4253 14.9536 22.7833 15.0753H42.75C42.6928 14.8745 42.6296 14.6809 42.5622 14.4946H42.5636Z" fill="#008641"/>
<path d="M41.7468 12.8442H20.8867C20.9175 13.0554 20.9659 13.249 21.0275 13.425H42.0886C41.98 13.2211 41.8656 13.0276 41.7468 12.8442Z" fill="#008641"/>
<path d="M29.9013 23.5767H16.6083C16.5188 23.7688 16.4352 23.9624 16.3574 24.1574H29.9013V23.5767Z" fill="#008641"/>
<path d="M42.2149 13.6704H21.1289C21.2316 13.8919 21.3592 14.0854 21.5031 14.2512H42.4702C42.3895 14.0488 42.3044 13.8552 42.2134 13.6704H42.2149Z" fill="#008641"/>
<path d="M25.7221 24.8572H29.9047V24.4011H16.2683C16.198 24.5947 16.1348 24.7883 16.0762 24.9818H24.2433C24.679 24.9027 25.166 24.8557 25.7221 24.8557V24.8572Z" fill="#008641"/>
<path d="M43.6512 22.5061C43.4942 22.4094 43.3328 22.3287 43.1758 22.2627V22.5061H43.6512Z" fill="#ED1B24"/>
<path d="M44.8262 24.5502C44.8262 24.1425 44.7382 23.798 44.5959 23.5061C44.5768 23.5471 44.5343 23.5765 44.4859 23.5765H43.1758V24.1572H44.4859C44.5534 24.1572 44.6076 24.2115 44.6076 24.279C44.6076 24.3464 44.5534 24.4007 44.4859 24.4007H43.1758V24.9814H44.4859C44.5534 24.9814 44.6076 25.0357 44.6076 25.1032C44.6076 25.1706 44.5534 25.2249 44.4859 25.2249H43.1758V25.8056H44.4859C44.5534 25.8056 44.6076 25.8598 44.6076 25.9274C44.6076 25.9948 44.5534 26.0491 44.4859 26.0491H43.1758V26.6298H44.4859C44.5534 26.6298 44.6076 26.684 44.6076 26.7516C44.6076 26.819 44.5534 26.8733 44.4859 26.8733H43.1758V27.454H44.4859C44.5534 27.454 44.6076 27.5082 44.6076 27.5757C44.6076 27.6432 44.5534 27.6975 44.4859 27.6975H43.1758V34.6693H44.8262V24.5444V24.5502Z" fill="#ED1B24"/>
<path d="M43.1758 23.3312H44.4859C44.4859 23.3312 44.4962 23.3341 44.502 23.3341C44.3627 23.1039 44.1866 22.9103 43.9915 22.749H43.1758V23.3297V23.3312Z" fill="#ED1B24"/>
<path d="M35.0429 24.4019H29.9023V24.858H35.0429V24.4019Z" fill="#ED1B24"/>
<path d="M35.0429 33.103H29.9023V34.6751H35.0429V33.103Z" fill="#ED1B24"/>
<path d="M29.9023 21.9429V22.5075H43.1777V22.2641C42.5527 21.9971 41.988 21.9443 41.988 21.9443H29.9023V21.9429Z" fill="#ED1B24"/>
<path d="M43.1773 24.4019H40.2227V24.9826H43.1773V24.4019Z" fill="#ED1B24"/>
<path d="M43.1773 26.0537H40.2227V26.6345H43.1773V26.0537Z" fill="#ED1B24"/>
<path d="M43.1773 26.8789H40.2227V27.4596H43.1773V26.8789Z" fill="#ED1B24"/>
<path d="M43.1777 22.7507H29.9023V23.3315H43.1777V22.7507Z" fill="#ED1B24"/>
<path d="M43.1773 25.2278H40.2227V25.8086H43.1773V25.2278Z" fill="#ED1B24"/>
<path d="M29.9023 24.1574H35.0443V23.7072H40.223V24.1574H43.1777V23.5767H29.9023V24.1574Z" fill="#ED1B24"/>
<path d="M43.1773 27.7034H40.2227V34.6753H43.1773V27.7034Z" fill="#ED1B24"/>
<path d="M35.0429 26.8789H29.9023V27.4596H35.0429V26.8789Z" fill="#ED1B24"/>
<path d="M35.0429 24.8564H29.9023V24.9825H35.0429V24.8564Z" fill="#ED1B24"/>
<path d="M35.0429 26.0537H29.9023V26.6345H35.0429V26.0537Z" fill="#ED1B24"/>
<path d="M35.0429 25.2278H29.9023V25.8086H35.0429V25.2278Z" fill="#ED1B24"/>
<path d="M35.0429 27.7034H29.9023V33.1016H35.0429V27.7034Z" fill="#ED1B24"/>
<path d="M45.0933 6.29199H42.3544C42.3544 6.29199 39.9499 13.9385 33.4023 13.9385V16.7425H38.2114V32.7026C38.2114 32.7026 38.9126 37.3104 44.0238 37.3104C44.0238 37.3104 47.5316 37.2107 50.5699 32.9035L49.1674 31.1672C49.1674 31.1672 46.3286 33.5048 45.2592 31.1335C45.2592 31.1335 44.8909 30.299 44.9584 28.7636V16.543H49.3346V14.0059H45.0259L45.0919 6.29346L45.0933 6.29199Z" stroke="black" stroke-width="0.876403" stroke-linecap="round" stroke-linejoin="round"/>
<path d="M16.584 40.1875H16.9962L18.5821 42.6938L18.5278 42.751V40.1875H18.9782V43.427H18.5615L16.9801 40.9589L17.0344 40.9002V43.4256H16.584V40.186V40.1875Z" fill="black"/>
<path d="M19.8382 43.287C19.6974 43.1682 19.627 42.9892 19.627 42.7487C19.627 42.5082 19.6915 42.3484 19.8206 42.234C19.9497 42.1196 20.1448 42.0624 20.4074 42.0624H21.0647L21.0955 42.4276H20.4089C20.29 42.4276 20.2006 42.4539 20.1419 42.5068C20.0832 42.5596 20.0538 42.6402 20.0538 42.7487C20.0538 42.866 20.0935 42.9526 20.1712 43.0098C20.249 43.067 20.3678 43.0948 20.5262 43.0948C20.7008 43.0948 20.8299 43.0757 20.915 43.0391C21.0001 43.0025 21.0427 42.9438 21.0427 42.8646L21.0896 43.1901C21.05 43.2532 21.0001 43.3045 20.9414 43.3441C20.8828 43.3838 20.8152 43.4146 20.7375 43.4351C20.6597 43.4556 20.5732 43.4659 20.4763 43.4659C20.1903 43.4659 19.9775 43.4072 19.8367 43.2885L19.8382 43.287ZM21.0441 41.9627C21.0441 41.8117 21.003 41.6929 20.9223 41.6093C20.8416 41.5257 20.7272 41.4832 20.5776 41.4832C20.4852 41.4832 20.3957 41.4978 20.3062 41.5257C20.2181 41.5535 20.1389 41.5931 20.0715 41.6444L19.7399 41.4171C19.828 41.3116 19.9438 41.2294 20.0861 41.1708C20.2299 41.1121 20.3898 41.0828 20.5644 41.0828C20.7566 41.0828 20.9209 41.1165 21.0574 41.184C21.1938 41.2514 21.2979 41.3497 21.3698 41.4787C21.4417 41.6078 21.4769 41.7618 21.4769 41.9436V43.4306H21.0441V41.9642V41.9627Z" fill="black"/>
<path d="M21.9883 41.1164H23.0314V41.5271H21.9883V41.1164ZM22.358 43.287C22.2714 43.1843 22.2274 43.0303 22.2274 42.8293V40.4448H22.6822V42.8337C22.6822 42.8895 22.6939 42.9335 22.716 42.9643C22.738 42.9951 22.7702 43.0097 22.8143 43.0097H23.0328V43.4424H22.7702C22.5825 43.4424 22.446 43.391 22.3594 43.287H22.358Z" fill="black"/>
<path d="M23.6562 40.1877H24.1111V40.6424H23.6562V40.1877ZM23.6562 41.1161H24.1111V43.4303H23.6562V41.1161Z" fill="black"/>
<path d="M25.1765 43.3453C25.0342 43.2661 24.9242 43.1517 24.8493 43.0007C24.7745 42.8496 24.7363 42.6678 24.7363 42.4552V42.0782C24.7363 41.8685 24.7745 41.6896 24.8493 41.54C24.9242 41.3905 25.0327 41.2775 25.1765 41.1984C25.3188 41.1206 25.4904 41.0811 25.6914 41.0811C25.8924 41.0811 26.064 41.1206 26.2064 41.1984C26.3487 41.2761 26.4572 41.3905 26.5335 41.54C26.6083 41.6896 26.6464 41.8685 26.6464 42.0782V42.461C26.6464 42.6722 26.6083 42.8525 26.5335 43.0021C26.4587 43.1518 26.3501 43.2661 26.2064 43.3439C26.064 43.4231 25.8924 43.4612 25.6914 43.4612C25.4904 43.4612 25.3188 43.4216 25.1765 43.3439V43.3453ZM26.0596 42.8819C26.1462 42.7822 26.1902 42.6428 26.1902 42.4625V42.0797C26.1902 41.8993 26.1462 41.7615 26.0596 41.6632C25.9731 41.565 25.8499 41.5166 25.69 41.5166C25.5301 41.5166 25.4083 41.565 25.3203 41.6632C25.2337 41.7615 25.1897 41.9008 25.1897 42.0797V42.4625C25.1897 42.6428 25.2337 42.7822 25.3203 42.8819C25.4068 42.9817 25.5301 43.0315 25.69 43.0315C25.8499 43.0315 25.9717 42.9817 26.0596 42.8819Z" fill="black"/>
<path d="M27.293 41.1165H27.7477V43.4306H27.293V41.1165ZM28.6984 42.0287C28.6984 41.8644 28.6559 41.7383 28.5707 41.6503C28.4856 41.5608 28.3668 41.5168 28.2143 41.5168C28.0617 41.5168 27.9502 41.5565 27.8695 41.6356C27.7888 41.7148 27.7477 41.8248 27.7477 41.967L27.7008 41.5212C27.7727 41.3819 27.865 41.2734 27.981 41.1986C28.0969 41.1223 28.223 41.0842 28.3638 41.0842C28.6147 41.0842 28.8099 41.1663 28.9463 41.3306C29.0842 41.4948 29.1532 41.7265 29.1532 42.0271V43.4321H28.6984V42.0301V42.0287Z" fill="black"/>
<path d="M29.5762 41.116H30.0515L30.4623 42.7673L31.0403 41.116H31.3572L31.9352 42.7673L32.346 41.116H32.8213L32.1083 43.4301H31.765L31.2002 41.8316L30.6353 43.4301H30.2921L29.5791 41.116H29.5762Z" fill="black"/>
<path d="M33.3086 40.1877H33.7634V40.6424H33.3086V40.1877ZM33.3086 41.1161H33.7634V43.4303H33.3086V41.1161Z" fill="black"/>
<path d="M34.7554 43.3599C34.6351 43.2865 34.5441 43.1795 34.4825 43.0373C34.4195 42.8965 34.3887 42.7263 34.3887 42.5284V42.018C34.3887 41.8186 34.4195 41.6485 34.4796 41.5077C34.5412 41.3668 34.6293 41.2584 34.7466 41.185C34.8625 41.1117 35.0033 41.075 35.1676 41.075C35.3041 41.075 35.4302 41.1103 35.5432 41.1821C35.6576 41.2539 35.7486 41.3537 35.819 41.4827L35.772 41.9549C35.772 41.8567 35.7545 41.7731 35.7178 41.7027C35.6826 41.6323 35.6312 41.5795 35.5622 41.5428C35.4948 41.5062 35.4127 41.4886 35.3158 41.4886C35.1662 41.4886 35.0488 41.5355 34.9667 41.6294C34.8845 41.7232 34.8434 41.8552 34.8434 42.0238V42.5284C34.8434 42.6955 34.8845 42.8261 34.9667 42.917C35.0488 43.0079 35.1647 43.0534 35.3158 43.0534C35.4127 43.0534 35.4948 43.0343 35.5622 42.9962C35.6298 42.958 35.6811 42.9038 35.7178 42.8319C35.753 42.76 35.772 42.675 35.772 42.5753L35.8029 43.0637C35.7574 43.178 35.6811 43.2734 35.577 43.3511C35.4728 43.4288 35.3437 43.4669 35.1896 43.4669C35.0195 43.4669 34.8757 43.4303 34.7554 43.357V43.3599ZM35.7706 40.1877H36.2254V43.4288H35.7706V40.1877Z" fill="black"/>
<path d="M37.5459 43.4627C37.5459 43.4627 37.4696 43.4231 37.3186 43.3424C37.1675 43.2617 37.0515 43.1444 36.9723 42.989C36.8931 42.8335 36.8535 42.6458 36.8535 42.4258V42.1648C36.8535 41.936 36.8916 41.741 36.9679 41.5781C37.0442 41.4169 37.1557 41.2922 37.301 41.2086C37.4462 41.1235 37.6222 41.0811 37.8276 41.0811C38.0212 41.0811 38.1856 41.1294 38.322 41.2262C38.4584 41.323 38.5626 41.4623 38.636 41.6457C38.7079 41.829 38.7445 42.0474 38.7445 42.3026V42.4537H37.1836V42.0886H38.3118C38.2985 41.8993 38.2501 41.7527 38.1651 41.6486C38.0814 41.5444 37.9684 41.4916 37.8276 41.4916C37.6559 41.4916 37.5224 41.5473 37.4271 41.6617C37.3332 41.7747 37.2863 41.9345 37.2863 42.1413V42.4361C37.2863 42.6282 37.3361 42.7749 37.4374 42.8775C37.5386 42.9802 37.6823 43.0315 37.8673 43.0315C37.9597 43.0315 38.0507 43.0124 38.1416 42.9758C38.2326 42.9391 38.3133 42.8864 38.3851 42.8203L38.6844 43.1195C38.5699 43.2295 38.4408 43.3145 38.2985 43.3747C38.1563 43.4348 38.0125 43.4656 37.8687 43.4656H37.5474L37.5459 43.4627Z" fill="black"/>
<path d="M41.0915 43.4302H40.6367V40.1892H41.0915V43.4302Z" fill="black"/>
<path d="M42.6352 43.4628C42.6352 43.4628 42.5648 43.4482 42.4254 43.4188C42.2861 43.3895 42.1555 43.344 42.0337 43.2853C41.9119 43.2252 41.799 43.1519 41.6934 43.0625L41.9765 42.7149C42.0997 42.8219 42.2362 42.9026 42.3843 42.9554C42.5325 43.0082 42.6939 43.0361 42.8685 43.0361C43.1032 43.0361 43.2851 42.992 43.4142 42.9055C43.5433 42.819 43.6079 42.6958 43.6079 42.536C43.6079 42.4201 43.5785 42.3307 43.5199 42.2647C43.4611 42.1986 43.3849 42.1488 43.2924 42.118C43.2 42.0858 43.0797 42.0564 42.933 42.03C42.9286 42.03 42.9242 42.0286 42.9184 42.0286C42.9124 42.0286 42.908 42.0286 42.9037 42.0256L42.8699 42.0183C42.6528 41.9816 42.4768 41.9391 42.3404 41.8922C42.2039 41.8452 42.088 41.7602 41.9911 41.6355C41.8944 41.5108 41.8459 41.3349 41.8459 41.1061C41.8459 40.9037 41.8914 40.7321 41.9809 40.5899C42.0704 40.4476 42.2024 40.3406 42.3741 40.2658C42.5457 40.191 42.754 40.1543 42.9961 40.1543C43.112 40.1543 43.2264 40.1675 43.3379 40.1925C43.4494 40.2173 43.5609 40.2555 43.6694 40.3053C43.7795 40.3552 43.8866 40.4183 43.9922 40.4931L43.734 40.8539C43.6108 40.7629 43.4875 40.6955 43.3643 40.65C43.2411 40.6046 43.1193 40.5826 42.9947 40.5826C42.7731 40.5826 42.6015 40.6265 42.4782 40.7145C42.355 40.8025 42.2949 40.9286 42.2949 41.09V41.0929C42.2949 41.2044 42.3256 41.2924 42.3902 41.3554C42.4533 41.4199 42.5325 41.4669 42.6264 41.4977C42.7203 41.5285 42.8523 41.5593 43.0196 41.593C43.0255 41.5945 43.0313 41.5959 43.0357 41.5959C43.0415 41.5959 43.046 41.5974 43.0519 41.5988C43.0592 41.6003 43.0679 41.6018 43.0768 41.6032C43.0856 41.6047 43.0944 41.6062 43.1017 41.6076C43.2983 41.6473 43.4611 41.6956 43.5932 41.7499C43.7253 41.8042 43.8353 41.8936 43.9233 42.0168C44.0113 42.14 44.0553 42.3072 44.0553 42.5198V42.5242C44.0553 42.7222 44.0083 42.8909 43.9145 43.0317C43.8206 43.1724 43.6856 43.2795 43.5081 43.3528C43.3305 43.4262 43.1164 43.4628 42.8656 43.4628H42.6308H42.6352Z" fill="black"/>
<path d="M44.6621 40.1875H45.1169V43.4285H44.6621V40.1875ZM44.8954 41.739H45.9325C46.0308 41.739 46.1174 41.7156 46.1907 41.6701C46.2656 41.6247 46.3228 41.5587 46.3639 41.4736C46.4049 41.3886 46.4255 41.2918 46.4255 41.1818C46.4255 41.0718 46.4049 40.972 46.3639 40.8871C46.3228 40.802 46.2656 40.736 46.1907 40.6891C46.1159 40.6421 46.0308 40.6187 45.9325 40.6187H44.8954V40.186H45.9164C46.1101 40.186 46.2803 40.2271 46.4269 40.3092C46.5737 40.3914 46.6881 40.5087 46.7688 40.6583C46.8494 40.8078 46.8906 40.9824 46.8906 41.1804C46.8906 41.3783 46.8494 41.5514 46.7688 41.7009C46.6881 41.8505 46.5737 41.9664 46.4269 42.0471C46.2803 42.1292 46.1101 42.1702 45.9164 42.1702H44.8954V41.7376V41.739Z" fill="black"/>
<path d="M12.5925 46.5496L14.2356 51.0885H13.0517L12.6307 49.8903H11.0565L10.6516 51.0885H9.50586L11.1724 46.5496H12.594H12.5925ZM11.2179 49.2289H12.4708L12.1187 48.1965C12.0277 47.9134 11.928 47.5468 11.8517 47.2697H11.8282C11.7519 47.5527 11.6522 47.9252 11.5685 48.1906L11.2164 49.2289H11.2179Z" fill="black"/>
<path d="M19.2794 46.5496V51.0885H18.1484L16.8881 49.2113C16.5741 48.7449 16.2309 48.1847 15.9859 47.6891H15.9551C16.0006 48.2493 16.024 48.8872 16.024 49.6968V51.09H15V46.551H16.2221L17.4602 48.393C17.7742 48.8476 18.1029 49.402 18.3391 49.8742H18.3537C18.2848 49.2949 18.254 48.6526 18.254 47.9149V46.551H19.278L19.2794 46.5496Z" fill="black"/>
<path d="M23.9895 46.5496V47.3049H22.5371V51.0885H21.406V47.3049H19.9609V46.5496H23.988H23.9895Z" fill="black"/>
<path d="M27.3132 46.5496L28.9564 51.0885H27.7725L27.3514 49.8903H25.7773L25.3724 51.0885H24.2266L25.8932 46.5496H27.3147H27.3132ZM25.9372 49.2289H27.1901L26.8379 48.1965C26.747 47.9134 26.6472 47.5468 26.5709 47.2697H26.5475C26.4712 47.5527 26.3714 47.9252 26.2878 48.1906L25.9357 49.2289H25.9372Z" fill="black"/>
<path d="M29.7202 46.6085C30.1105 46.5557 30.6606 46.5146 31.2328 46.5146C31.9736 46.5146 33.4714 46.585 33.4714 47.8022C33.4714 48.3566 33.0123 48.7643 32.4622 48.93V48.9476C32.8743 49.0708 33.1047 49.3787 33.2411 49.8392C33.4099 50.376 33.5624 50.92 33.6768 51.0902H32.515C32.4314 50.9597 32.2861 50.5651 32.1482 50.0152C31.9956 49.4315 31.758 49.2482 31.2239 49.2482H30.8425V51.0902H29.7188V46.61L29.7202 46.6085ZM30.844 48.5971H31.3105C31.953 48.5971 32.3418 48.3082 32.3418 47.877C32.3418 47.2919 31.7755 47.1804 31.3633 47.1804C31.111 47.1804 30.9349 47.1921 30.844 47.2156V48.5971Z" fill="black"/>
<path d="M37.0711 46.5496L38.7141 51.0885H37.5302L37.1092 49.8903H35.535L35.1301 51.0885H33.9844L35.6509 46.5496H37.0725H37.0711ZM35.6964 49.2289H36.9493L36.5971 48.1965C36.5062 47.9134 36.4064 47.5468 36.3301 47.2697H36.3067C36.2304 47.5527 36.1307 47.9252 36.047 48.1906L35.6949 49.2289H35.6964Z" fill="black"/>
<path d="M43.7599 46.5496V51.0885H42.6288L41.3686 49.2113C41.0546 48.7449 40.7113 48.1847 40.4664 47.6891H40.4356C40.4811 48.2493 40.5045 48.8872 40.5045 49.6968V51.09H39.4805V46.551H40.704L41.9422 48.393C42.2561 48.8476 42.5848 49.402 42.821 49.8742H42.8357C42.7667 49.2949 42.7359 48.6526 42.7359 47.9149V46.551H43.7599V46.5496Z" fill="black"/>
<path d="M49.1635 48.556V50.9113C48.8203 51.011 48.1543 51.1357 47.4896 51.1357C46.5947 51.1357 45.9155 50.9583 45.4182 50.5814C44.9135 50.1971 44.623 49.5782 44.623 48.8582C44.623 47.3227 45.9448 46.5029 47.6334 46.5029C48.229 46.5029 48.7263 46.5851 49.0095 46.6921L48.7718 47.4122C48.5048 47.3184 48.1674 47.2464 47.6481 47.2464C46.6006 47.2464 45.8069 47.7422 45.8069 48.8406C45.8069 49.939 46.5332 50.4229 47.5029 50.4229C47.7786 50.4229 47.984 50.3936 48.0838 50.3584V49.2483H47.2358V48.5575H49.1621L49.1635 48.556Z" fill="black"/>
<path d="M52.8308 46.5496L54.4739 51.0885H53.29L52.8689 49.8903H51.2948L50.8898 51.0885H49.7441L51.4107 46.5496H52.8323H52.8308ZM51.4562 49.2289H52.709L52.357 48.1965C52.266 47.9134 52.1662 47.5468 52.0899 47.2697H52.0664C51.9902 47.5527 51.8904 47.9252 51.8068 48.1906L51.4547 49.2289H51.4562Z" fill="black"/>
<path d="M9.64258 57.7698V52.8306H11.0069C12.7483 52.8306 13.6183 53.6327 13.6183 55.2386C13.6183 56.0012 13.3762 56.6128 12.8936 57.0761C12.4094 57.5396 11.7625 57.7698 10.9512 57.7698H9.64258ZM10.2221 53.3541V57.2463H10.96C11.607 57.2463 12.1116 57.0732 12.4725 56.7256C12.8334 56.3796 13.0139 55.8882 13.0139 55.2518C13.0139 53.9862 12.3405 53.3541 10.9952 53.3541H10.2235H10.2221Z" fill="black"/>
<path d="M16.5807 57.8525C15.8794 57.8525 15.319 57.6223 14.8979 57.1603C14.4769 56.6983 14.2656 56.0986 14.2656 55.3594C14.2656 54.5646 14.4798 53.931 14.9097 53.4588C15.3395 52.9866 15.9234 52.749 16.6643 52.749C17.3465 52.749 17.8966 52.9793 18.3133 53.4383C18.7299 53.8973 18.9382 54.4986 18.9382 55.2392C18.9382 56.0457 18.7241 56.6823 18.2971 57.1516C17.8702 57.6194 17.298 57.854 16.5807 57.854V57.8525ZM16.6232 53.2726C16.1039 53.2726 15.6828 53.4603 15.3586 53.8343C15.0344 54.2082 14.873 54.6995 14.873 55.3082C14.873 55.9167 15.0315 56.4066 15.3469 56.7776C15.6623 57.1486 16.0745 57.3334 16.5821 57.3334C17.125 57.3334 17.5519 57.1559 17.8643 56.8025C18.1768 56.4491 18.3323 55.9534 18.3323 55.3184C18.3323 54.6833 18.1812 54.1628 17.8775 53.8064C17.5739 53.45 17.1558 53.2726 16.6232 53.2726Z" fill="black"/>
<path d="M22.8328 53.3541H21.4068V57.7698H20.8273V53.3541H19.4043V52.8306H22.8328V53.3541Z" fill="black"/>
<path d="M28.9035 57.5633C28.5382 57.7569 28.0834 57.8523 27.5392 57.8523C26.8364 57.8523 26.273 57.6264 25.8505 57.1732C25.428 56.7216 25.2168 56.1276 25.2168 55.3929C25.2168 54.6024 25.4545 53.9645 25.9298 53.4776C26.4051 52.9907 27.008 52.7473 27.7386 52.7473C28.2066 52.7473 28.5954 52.8148 28.9035 52.9511V53.567C28.5499 53.3691 28.1597 53.2708 27.7313 53.2708C27.1635 53.2708 26.7044 53.46 26.3508 53.8383C25.9987 54.2167 25.8227 54.7241 25.8227 55.3577C25.8227 55.9912 25.987 56.4385 26.3171 56.7963C26.6472 57.1527 27.0785 57.3316 27.614 57.3316C28.1099 57.3316 28.5397 57.2217 28.9021 57.0016V57.5633H28.9035Z" fill="black"/>
<path d="M31.9009 57.8525C31.1997 57.8525 30.6393 57.6223 30.2182 57.1603C29.7972 56.6983 29.5859 56.0986 29.5859 55.3594C29.5859 54.5646 29.8001 53.931 30.23 53.4588C30.6598 52.9866 31.2437 52.749 31.9846 52.749C32.6668 52.749 33.2169 52.9793 33.6336 53.4383C34.0502 53.8973 34.2585 54.4986 34.2585 55.2392C34.2585 56.0457 34.0443 56.6823 33.6174 57.1516C33.1905 57.6194 32.6183 57.854 31.9009 57.854V57.8525ZM31.942 53.2726C31.4227 53.2726 31.0016 53.4603 30.6774 53.8343C30.3532 54.2082 30.1918 54.6995 30.1918 55.3082C30.1918 55.9167 30.3503 56.4066 30.6657 56.7776C30.9811 57.1486 31.3933 57.3334 31.9009 57.3334C32.4437 57.3334 32.8707 57.1559 33.1831 56.8025C33.4956 56.4491 33.6511 55.9534 33.6511 55.3184C33.6511 54.6833 33.5001 54.1628 33.1964 53.8064C32.8926 53.45 32.4745 53.2726 31.942 53.2726Z" fill="black"/>
<path d="M40.2664 57.7701H39.6913V54.4572C39.6913 54.1947 39.7075 53.875 39.7398 53.4967H39.7265C39.6708 53.7195 39.6224 53.8794 39.5784 53.9747L37.8898 57.7701H37.6066L35.921 54.0026C35.8726 53.8926 35.8227 53.724 35.7728 53.4967H35.7596C35.7772 53.6947 35.7875 54.0173 35.7875 54.4646V57.7715H35.2285V52.8323H35.9929L37.5083 56.2772C37.6257 56.5412 37.7005 56.7391 37.7357 56.8697H37.7563C37.8546 56.5984 37.9338 56.396 37.9939 56.264L39.5402 52.8337H40.2635V57.773L40.2664 57.7701Z" fill="black"/>
<path d="M46.061 57.7698H43.498V52.8306H44.0776V57.2463H46.0625V57.7698H46.061Z" fill="black"/>
<path d="M49.743 53.3541H48.3169V57.7698H47.7375V53.3541H46.3145V52.8306H49.743V53.3541Z" fill="black"/>
<path d="M50.5156 57.7698V52.8306H51.8801C53.6214 52.8306 54.4913 53.6327 54.4913 55.2386C54.4913 56.0012 54.2493 56.6128 53.7667 57.0761C53.2825 57.5396 52.6355 57.7698 51.8242 57.7698H50.5156ZM51.0952 53.3541V57.2463H51.8331C52.4801 57.2463 52.9847 57.0732 53.3456 56.7256C53.7065 56.3796 53.8869 55.8882 53.8869 55.2518C53.8869 53.9862 53.2136 53.3541 51.8683 53.3541H51.0966H51.0952Z" fill="black"/>
</g>
</svg>
