<svg width="641" height="563" viewBox="0 0 641 563" fill="none" xmlns="http://www.w3.org/2000/svg">
<rect x="62.272" width="0.895072" height="559.42" fill="url(#paint0_linear_454_843)" fill-opacity="0.24"/>
<rect x="602" y="21.4814" width="0.895093" height="563" transform="rotate(90 602 21.4814)" fill="url(#paint1_linear_454_843)" fill-opacity="0.24"/>
<rect x="148.199" width="0.895072" height="559.42" fill="url(#paint2_linear_454_843)" fill-opacity="0.24"/>
<rect x="602" y="107.408" width="0.895093" height="563" transform="rotate(90 602 107.408)" fill="url(#paint3_linear_454_843)" fill-opacity="0.24"/>
<rect x="234.125" width="0.895072" height="559.42" fill="url(#paint4_linear_454_843)" fill-opacity="0.24"/>
<rect x="602" y="193.336" width="0.895093" height="563" transform="rotate(90 602 193.336)" fill="url(#paint5_linear_454_843)" fill-opacity="0.24"/>
<rect x="320.053" width="0.895072" height="559.42" fill="url(#paint6_linear_454_843)" fill-opacity="0.24"/>
<rect x="602" y="279.263" width="0.895093" height="563" transform="rotate(90 602 279.263)" fill="url(#paint7_linear_454_843)" fill-opacity="0.24"/>
<rect x="405.979" width="0.895072" height="559.42" fill="url(#paint8_linear_454_843)" fill-opacity="0.24"/>
<rect x="602" y="365.189" width="0.895093" height="563" transform="rotate(90 602 365.189)" fill="url(#paint9_linear_454_843)" fill-opacity="0.24"/>
<rect x="491.906" width="0.895072" height="559.42" fill="url(#paint10_linear_454_843)" fill-opacity="0.24"/>
<rect x="602" y="451.116" width="0.895093" height="563" transform="rotate(90 602 451.116)" fill="url(#paint11_linear_454_843)" fill-opacity="0.24"/>
<rect x="577.833" width="0.895072" height="559.42" fill="url(#paint12_linear_454_843)" fill-opacity="0.24"/>
<rect x="602" y="537.043" width="0.895093" height="563" transform="rotate(90 602 537.043)" fill="url(#paint13_linear_454_843)" fill-opacity="0.24"/>
<rect x="180" y="60" width="81" height="34" rx="6" fill="#F3F6FF"/>
<path d="M198.226 70.9091V84H196.244V72.8906H196.168L193.036 74.9361V73.044L196.302 70.9091H198.226ZM206.325 84.2173C205.315 84.2131 204.452 83.9467 203.736 83.4183C203.02 82.8899 202.472 82.1207 202.093 81.1108C201.714 80.1009 201.524 78.8842 201.524 77.4609C201.524 76.0419 201.714 74.8295 202.093 73.8239C202.477 72.8182 203.026 72.0511 203.742 71.5227C204.462 70.9943 205.323 70.7301 206.325 70.7301C207.326 70.7301 208.185 70.9964 208.901 71.5291C209.616 72.0575 210.164 72.8246 210.543 73.8303C210.927 74.8317 211.119 76.0419 211.119 77.4609C211.119 78.8885 210.929 80.1072 210.55 81.1172C210.17 82.1229 209.623 82.892 208.907 83.4247C208.191 83.9531 207.33 84.2173 206.325 84.2173ZM206.325 82.5107C207.211 82.5107 207.903 82.0781 208.402 81.2131C208.905 80.348 209.156 79.0973 209.156 77.4609C209.156 76.3743 209.041 75.456 208.811 74.706C208.585 73.9517 208.259 73.3807 207.833 72.9929C207.411 72.6009 206.908 72.4048 206.325 72.4048C205.442 72.4048 204.75 72.8395 204.247 73.7088C203.744 74.5781 203.491 75.8288 203.487 77.4609C203.487 78.5518 203.599 79.4744 203.825 80.2287C204.055 80.9787 204.381 81.5476 204.803 81.9354C205.225 82.3189 205.732 82.5107 206.325 82.5107ZM218.329 70.9091H220.726L224.893 81.0852H225.047L229.214 70.9091H231.612V84H229.732V74.527H229.611L225.75 83.9808H224.19L220.33 74.5206H220.208V84H218.329V70.9091ZM234.33 84V74.1818H236.241V84H234.33ZM235.295 72.6669C234.963 72.6669 234.677 72.5561 234.438 72.3345C234.204 72.1087 234.087 71.8402 234.087 71.5291C234.087 71.2138 234.204 70.9453 234.438 70.7237C234.677 70.4979 234.963 70.3849 235.295 70.3849C235.627 70.3849 235.911 70.4979 236.145 70.7237C236.384 70.9453 236.503 71.2138 236.503 71.5291C236.503 71.8402 236.384 72.1087 236.145 72.3345C235.911 72.5561 235.627 72.6669 235.295 72.6669ZM240.723 78.1705V84H238.812V74.1818H240.647V75.7798H240.768C240.994 75.2599 241.348 74.8423 241.829 74.527C242.315 74.2116 242.926 74.054 243.664 74.054C244.333 74.054 244.919 74.1946 245.422 74.4759C245.924 74.7528 246.314 75.1662 246.591 75.7159C246.868 76.2656 247.007 76.9453 247.007 77.755V84H245.096V77.9851C245.096 77.2734 244.91 76.7173 244.539 76.3168C244.169 75.9119 243.659 75.7095 243.012 75.7095C242.569 75.7095 242.174 75.8054 241.829 75.9972C241.488 76.1889 241.218 76.4702 241.017 76.8409C240.821 77.2074 240.723 77.6506 240.723 78.1705Z" fill="#3E4265"/>
<path d="M493 559V450.056L343 285.92L292 157.298L343 49.3141L324 9" stroke="url(#paint14_linear_454_843)" stroke-width="8" stroke-linecap="round"/>
<circle cx="340" cy="51" r="10" fill="white" stroke="#008641" stroke-width="6"/>
<defs>
<linearGradient id="paint0_linear_454_843" x1="62.7195" y1="0" x2="62.7195" y2="559.42" gradientUnits="userSpaceOnUse">
<stop stop-opacity="0"/>
<stop offset="0.447917"/>
<stop offset="1" stop-opacity="0"/>
</linearGradient>
<linearGradient id="paint1_linear_454_843" x1="602.448" y1="21.4814" x2="602.448" y2="584.481" gradientUnits="userSpaceOnUse">
<stop stop-opacity="0"/>
<stop offset="0.447917"/>
<stop offset="1" stop-opacity="0"/>
</linearGradient>
<linearGradient id="paint2_linear_454_843" x1="148.646" y1="0" x2="148.646" y2="559.42" gradientUnits="userSpaceOnUse">
<stop stop-opacity="0"/>
<stop offset="0.447917"/>
<stop offset="1" stop-opacity="0"/>
</linearGradient>
<linearGradient id="paint3_linear_454_843" x1="602.448" y1="107.408" x2="602.448" y2="670.408" gradientUnits="userSpaceOnUse">
<stop stop-opacity="0"/>
<stop offset="0.447917"/>
<stop offset="1" stop-opacity="0"/>
</linearGradient>
<linearGradient id="paint4_linear_454_843" x1="234.573" y1="0" x2="234.573" y2="559.42" gradientUnits="userSpaceOnUse">
<stop stop-opacity="0"/>
<stop offset="0.447917"/>
<stop offset="1" stop-opacity="0"/>
</linearGradient>
<linearGradient id="paint5_linear_454_843" x1="602.448" y1="193.336" x2="602.448" y2="756.336" gradientUnits="userSpaceOnUse">
<stop stop-opacity="0"/>
<stop offset="0.447917"/>
<stop offset="1" stop-opacity="0"/>
</linearGradient>
<linearGradient id="paint6_linear_454_843" x1="320.5" y1="0" x2="320.5" y2="559.42" gradientUnits="userSpaceOnUse">
<stop stop-opacity="0"/>
<stop offset="0.447917"/>
<stop offset="1" stop-opacity="0"/>
</linearGradient>
<linearGradient id="paint7_linear_454_843" x1="602.448" y1="279.263" x2="602.448" y2="842.263" gradientUnits="userSpaceOnUse">
<stop stop-opacity="0"/>
<stop offset="0.447917"/>
<stop offset="1" stop-opacity="0"/>
</linearGradient>
<linearGradient id="paint8_linear_454_843" x1="406.427" y1="0" x2="406.427" y2="559.42" gradientUnits="userSpaceOnUse">
<stop stop-opacity="0"/>
<stop offset="0.447917"/>
<stop offset="1" stop-opacity="0"/>
</linearGradient>
<linearGradient id="paint9_linear_454_843" x1="602.448" y1="365.189" x2="602.448" y2="928.189" gradientUnits="userSpaceOnUse">
<stop stop-opacity="0"/>
<stop offset="0.447917"/>
<stop offset="1" stop-opacity="0"/>
</linearGradient>
<linearGradient id="paint10_linear_454_843" x1="492.354" y1="0" x2="492.354" y2="559.42" gradientUnits="userSpaceOnUse">
<stop stop-opacity="0"/>
<stop offset="0.447917"/>
<stop offset="1" stop-opacity="0"/>
</linearGradient>
<linearGradient id="paint11_linear_454_843" x1="602.448" y1="451.116" x2="602.448" y2="1014.12" gradientUnits="userSpaceOnUse">
<stop stop-opacity="0"/>
<stop offset="0.447917"/>
<stop offset="1" stop-opacity="0"/>
</linearGradient>
<linearGradient id="paint12_linear_454_843" x1="578.281" y1="0" x2="578.281" y2="559.42" gradientUnits="userSpaceOnUse">
<stop stop-opacity="0"/>
<stop offset="0.447917"/>
<stop offset="1" stop-opacity="0"/>
</linearGradient>
<linearGradient id="paint13_linear_454_843" x1="602.448" y1="537.043" x2="602.448" y2="1100.04" gradientUnits="userSpaceOnUse">
<stop stop-opacity="0"/>
<stop offset="0.447917"/>
<stop offset="1" stop-opacity="0"/>
</linearGradient>
<linearGradient id="paint14_linear_454_843" x1="382.046" y1="-63.2913" x2="221.989" y2="509.079" gradientUnits="userSpaceOnUse">
<stop stop-color="#008641"/>
<stop offset="0.354167" stop-color="#008641"/>
<stop offset="1" stop-color="#008641" stop-opacity="0"/>
</linearGradient>
</defs>
</svg>
