<svg width="842" height="543" viewBox="0 0 842 543" fill="none" xmlns="http://www.w3.org/2000/svg">
<path d="M670.379 482.76C667.779 481.49 665.579 480.65 663.649 480.16C662.319 479.82 660.779 479.65 659.059 479.65C658.509 479.65 657.949 479.67 657.369 479.7L651.579 480.08C649.149 480.24 647.129 478.21 647.299 475.78L648.489 458.93C648.709 455.87 646.559 453.16 643.539 452.65L635.249 451.27L634.739 451.08C630.199 449.38 627.589 445.87 627.589 441.45V392.12C627.589 388.22 629.689 384.91 633.339 383.02L633.709 382.83L657.149 374.89H625.469V340.21H715.109V374.89H714.759V459.82C714.759 464.19 711.219 467.73 706.849 467.73H688.169C685.479 467.73 683.159 469.63 682.639 472.27L680.609 482.51C680.159 484.76 677.749 486.01 675.659 485.09L670.379 482.76ZM677.279 423.38V409.1L658.399 413.64L658.999 417.41C658.999 417.41 659.019 417.43 659.019 417.44L677.269 423.39L677.279 423.38Z" fill="black"/>
<path d="M511.822 467.91C509.402 467.91 507.442 465.95 507.442 463.53V459.07C507.442 458.88 507.422 458.81 507.282 458.64C507.152 458.48 507.092 458.45 506.892 458.42L464.532 451.36L464.022 451.17C459.482 449.47 456.882 445.93 456.882 441.45V392.21C456.882 388.32 458.882 385.08 462.502 383.09L462.932 382.85L486.302 374.98H454.762V340.21H544.052V462.7C544.052 465.58 541.722 467.91 538.842 467.91H511.812H511.822ZM506.572 423.39V409.19L487.692 413.65L488.292 417.4C488.292 417.4 488.312 417.42 488.322 417.43L506.572 423.38V423.39Z" fill="black"/>
<path d="M556.02 456.23L555.81 434.1C555.88 431.79 556.43 429.72 557.43 427.91H552.67C550.24 427.91 548.06 427.3 546.19 426.1C543.63 424.48 542.16 421.91 542.16 419.07V374.97H539.43V340.2H631.01V374.97H628.1C629.67 377.13 630.48 379.67 630.48 382.43V424.45C630.48 429.33 628.69 433.77 625.15 437.67C622.78 440.29 619.94 442.51 616.69 444.3L635.11 452.19C637.49 453.21 638.17 456.26 636.45 458.2L618.39 478.43C616.53 480.51 613.55 481.17 610.99 480.06L556.02 456.24V456.23ZM580.94 395.26C582.97 395.26 584.7 394.81 586.23 393.87L586.37 393.78V392.77C586.37 392.77 583.64 392.68 583.63 392.68C580.68 392.68 577.77 392.17 575.17 391.15C575.14 391.14 575.1 391.13 575.07 391.11V395.26H580.94Z" fill="black"/>
<path d="M545 366.12V342.51H625.42V366.12H545ZM581.12 371.93H617.76C619.86 371.93 621.65 372.76 623.13 374.41C624.29 375.71 624.9 377.41 624.9 379.15V421.17C624.9 424.64 623.61 427.79 621.02 430.64C618.44 433.49 615.22 435.75 611.37 437.42C607.52 439.09 603.72 439.93 599.96 439.93L626.44 451.27C628.49 452.15 629.08 454.78 627.59 456.45L616.27 469.14C614.79 470.8 612.42 471.32 610.38 470.44L564.53 450.57C562.72 449.79 561.55 448.01 561.53 446.04L561.39 430.78C561.45 428.84 562.12 427.21 563.42 425.89C564.71 424.57 566.3 423.91 568.18 423.91H595.57C598.09 423.91 600.24 423.1 602 421.49C603.76 419.88 604.64 417.92 604.64 415.63V390.97C604.64 388.68 603.76 386.71 602 385.07C601.18 384.37 600.27 383.81 599.27 383.4V408.86C599.27 411.68 597.76 414.09 594.73 416.08C591.71 418.08 588.05 419.07 583.76 419.07H552.67C551.32 419.07 550.16 418.76 549.19 418.14C548.22 417.52 547.74 416.75 547.74 415.81V348.87L569.32 348.16V367.01L579.71 371.41L581.12 371.94V371.93ZM591.95 391.93V387.53C591.95 386.53 591.43 385.7 590.41 385.02C589.38 384.35 588.08 383.98 586.49 383.92L583.85 383.83C581.38 383.83 579.17 383.45 577.2 382.68C575.23 381.92 573.07 380.77 570.73 379.25L569.5 379.87V394.05C569.5 395.05 570.01 395.89 571.04 396.56C572.07 397.24 573.34 397.57 574.87 397.57H580.95C584 397.57 586.73 396.84 589.14 395.37L590.37 394.58C591.43 393.82 591.96 392.94 591.96 391.94L591.95 391.93Z" fill="#974FA5"/>
<path d="M631.059 366.03V342.51H709.539V366.03H631.059ZM683.739 349.83L709.199 350.27V452.44C709.199 456 706.319 458.88 702.759 458.88H683.739V455.86C683.739 454.33 683.229 452.82 682.219 451.68C681.209 450.54 679.969 449.84 678.449 449.54L636.699 442.58C634.349 441.7 633.179 440.23 633.179 438.18V388.85C633.179 387.03 634.089 385.65 635.909 384.71L683.739 368.5V349.83ZM682.849 426.81V401.27C682.789 400.92 682.669 400.62 682.499 400.39C682.319 400.16 682.039 399.97 681.659 399.82C681.279 399.67 680.719 399.61 679.989 399.64C679.259 399.67 678.299 399.83 677.129 400.12L654.759 405.49C653.119 406.43 652.409 407.84 652.649 409.72L653.619 415.8C654.209 417.33 655.199 418.47 656.609 419.24L681.189 427.25L682.859 426.81H682.849ZM652.989 471.12L657.039 470.86C660.029 470.68 662.689 470.89 665.009 471.48C667.329 472.07 669.869 473.04 672.629 474.39L675.619 475.71L679.229 457.48L678.789 457.22C676.499 456.11 674.359 455.14 672.359 454.31C670.359 453.49 668.339 452.84 666.279 452.37C664.219 451.9 661.929 451.61 659.409 451.49L654.389 451.23L652.979 471.14L652.989 471.12Z" fill="#974FA5"/>
<path d="M384.658 356.63C382.258 356.27 379.398 355.34 377.448 353.02C375.298 350.46 374.648 346.55 375.668 342.3C376.858 337.31 380.108 332.92 383.748 331.37C384.418 331.08 386.218 330.41 388.378 330.41C389.908 330.41 391.317 330.75 392.547 331.42C393.217 331.79 393.838 332.25 394.408 332.79C391.958 333.1 388.648 334.05 385.778 336.68C382.108 340.05 379.198 346.31 381.468 352.07C382.238 354.02 383.447 355.52 384.647 356.62L384.658 356.63Z" fill="#808285"/>
<path d="M388.379 331.4C389.709 331.4 390.939 331.69 392.009 332.25C389.819 332.82 387.349 333.91 385.119 335.96C381.209 339.55 378.119 346.24 380.559 352.44C380.919 353.35 381.359 354.16 381.859 354.89C380.519 354.37 379.219 353.58 378.209 352.37C376.259 350.05 375.689 346.46 376.629 342.52C377.749 337.82 380.769 333.7 384.139 332.27C384.619 332.06 386.349 331.39 388.389 331.39M388.379 329.42C385.939 329.42 383.939 330.21 383.359 330.45C375.859 333.65 371.009 346.87 376.689 353.64C379.869 357.43 385.189 357.8 387.399 357.8C387.639 357.8 387.839 357.8 387.999 357.8C386.779 357.14 383.809 355.29 382.399 351.71C380.299 346.38 382.999 340.59 386.459 337.41C390.289 333.89 394.959 333.66 396.409 333.64C395.809 332.77 394.739 331.48 393.029 330.55C391.469 329.7 389.849 329.42 388.389 329.42H388.379Z" fill="black"/>
<path d="M393.741 332.42C394.291 332.44 395.101 332.53 396.011 332.85C396.011 332.85 398.421 333.7 400.311 336.38C402.671 339.72 404.081 347.85 399.151 353.39C396.161 356.74 390.141 359.94 385.201 357.32C380.501 354.83 379.621 348.59 380.301 344.64C381.341 338.67 386.681 333.78 393.731 332.42H393.741Z" fill="#F57102" stroke="black" stroke-width="1.98" stroke-miterlimit="10"/>
<path d="M399.249 335.75C398.919 335.11 398.389 334.32 397.529 333.65C396.189 332.6 394.729 332.37 393.859 332.34C395.109 330.21 400.549 319.8 395.189 308.61C391.539 300.98 384.279 295.7 376.249 294.85C375.489 294.77 374.709 294.73 373.929 294.73C363.089 294.73 352.949 302.68 349.249 314.07L346.379 315.74C349.329 303.4 359.209 293.99 371.139 292.26C372.469 292.07 373.829 291.97 375.179 291.97C388.319 291.97 400.549 301.07 403.629 313.14C406.219 323.33 401.639 332.11 399.269 335.76L399.249 335.75Z" fill="#F57102"/>
<path d="M375.16 292.2C388.19 292.2 400.32 301.22 403.37 313.19C405.86 322.97 401.67 331.46 399.26 335.27C398.91 334.68 398.41 334.03 397.67 333.46C396.46 332.52 395.17 332.21 394.25 332.13C395.79 329.36 400.56 319.3 395.39 308.51C391.7 300.8 384.37 295.47 376.25 294.61C375.48 294.53 374.69 294.49 373.91 294.49C362.99 294.49 352.78 302.46 349.02 313.91L347.44 314.83L346.73 315.24C349.82 303.27 359.5 294.2 371.15 292.51C372.47 292.32 373.81 292.22 375.15 292.22M375.16 291.7C373.81 291.7 372.45 291.8 371.09 291.99C358.9 293.76 348.81 303.44 346 316.21C347.15 315.54 348.3 314.88 349.45 314.21C353.22 302.51 363.46 294.95 373.93 294.95C374.69 294.95 375.46 294.99 376.22 295.07C384.26 295.93 391.43 301.31 394.97 308.7C400.74 320.76 393.84 331.92 393.42 332.57C393.48 332.57 393.55 332.57 393.64 332.57C394.35 332.57 395.93 332.69 397.39 333.83C398.48 334.68 399 335.71 399.23 336.25C400.53 334.31 406.79 324.54 403.87 313.06C400.73 300.72 388.32 291.7 375.18 291.7H375.16Z" fill="black"/>
<path d="M396.849 315.87C396.049 313.05 394.549 309.79 391.789 306.9C390.509 305.55 389.029 304.38 387.399 303.41C386.149 302.8 384.859 302.28 383.549 301.87C382.179 301.44 378.529 300.28 374.159 300.28C370.039 300.28 366.409 301.31 363.379 303.33C361.309 304.71 358.439 307.33 356.479 311.94C355.539 312.11 354.609 312.35 353.719 312.65C352.369 313.11 351.079 313.74 349.869 314.51L349.309 314.41C350.229 311.44 351.609 308.69 353.409 306.25C358.659 299.11 365.429 295.25 372.999 295.08C373.169 295.08 373.349 295.08 373.519 295.08C385.139 295.08 392.029 304.08 392.319 304.46C395.319 308.45 396.459 312.68 396.849 315.88V315.87Z" fill="#51D0D6"/>
<path d="M373.52 295.32C385.01 295.32 391.84 304.22 392.12 304.6C394.23 307.4 395.41 310.32 396.05 312.91C395.15 310.85 393.85 308.71 391.97 306.73C390.67 305.37 389.18 304.18 387.5 303.18C386.26 302.57 384.96 302.05 383.64 301.63C382.26 301.19 378.58 300.03 374.17 300.03C370 300.03 366.33 301.07 363.26 303.12C361.18 304.51 358.3 307.12 356.32 311.72C355.41 311.89 354.52 312.12 353.65 312.42C352.32 312.88 351.03 313.5 349.83 314.26L349.64 314.23C350.55 311.39 351.89 308.76 353.62 306.41C358.82 299.34 365.53 295.51 373.01 295.34C373.18 295.34 373.35 295.34 373.52 295.34M373.52 294.82C373.35 294.82 373.17 294.82 373 294.82C361.32 295.09 354.68 304.12 353.22 306.09C350.84 309.32 349.64 312.47 349 314.59C349.31 314.64 349.62 314.7 349.94 314.75C350.92 314.12 352.21 313.42 353.82 312.86C354.86 312.5 355.83 312.27 356.68 312.13C358.81 307.02 362.02 304.52 363.54 303.5C366.99 301.2 370.79 300.49 374.18 300.49C378.52 300.49 382.16 301.64 383.5 302.07C385.11 302.58 386.4 303.15 387.29 303.59C388.62 304.38 390.15 305.5 391.62 307.04C395.82 311.45 396.94 316.61 397.29 319.04C397.31 316.8 397.08 310.33 392.52 304.27C392.05 303.65 385.15 294.79 373.52 294.79V294.82Z" fill="black"/>
<path d="M345.869 338.96C344.699 338.31 341.029 336.1 339.299 331.52C339.029 330.79 336.829 324.68 340.359 319.54C342.169 316.9 344.649 315.74 345.479 315.38C348.129 314.25 350.489 314.38 351.569 314.51C349.669 322.66 347.769 330.81 345.869 338.96Z" fill="#F57102" stroke="black" stroke-width="1.98" stroke-miterlimit="10"/>
<path d="M352.919 314.12C346.749 316.68 343.339 324.05 343.739 330.55C344.029 335.17 346.399 342 350.599 342.73C355.769 343.62 361.109 334.78 362.969 328.52C363.449 326.91 366.249 317.47 361.709 314.12C358.539 311.78 353.679 313.8 352.919 314.12Z" fill="#808285" stroke="black" stroke-width="1.98" stroke-miterlimit="10"/>
<path d="M325.556 130.06C319.196 122.4 310.726 117.48 300.916 116L296.386 115.61L296.176 121.11C302.436 121.45 308.676 123.25 313.886 126.83C319.166 130.46 323.616 135.71 326.126 141.61C328.066 146.18 328.876 151.24 328.746 156.18L334.306 156.32C334.596 146.96 331.596 137.33 325.556 130.06Z" fill="#9E57A5"/>
<path d="M316.776 136.79C312.306 131.41 305.856 127.83 298.966 126.88L296.046 126.69L295.836 132.19C299.926 132.46 303.926 133.57 307.376 135.85C314.076 140.28 317.956 147.71 317.666 155.7L323.096 155.95C323.226 155.9 323.226 155.8 323.256 155.69C323.356 155.28 323.276 153.98 323.256 153.48C322.956 147.43 320.676 141.47 316.786 136.78L316.776 136.79Z" fill="white"/>
<path d="M308.357 144.05C305.217 140.16 300.577 137.95 295.637 137.7L295.457 143.2C296.377 143.46 297.327 143.48 298.277 143.76C303.437 145.28 306.767 150.04 306.587 155.37L311.947 155.58C312.077 155.59 312.127 155.57 312.177 155.44C312.277 155.17 312.087 153 312.037 152.56C311.647 149.54 310.287 146.42 308.367 144.05H308.357Z" fill="white"/>
<path d="M325.556 130.06C319.196 122.4 310.726 117.48 300.916 116L296.386 115.61L296.176 121.11C302.436 121.45 308.676 123.25 313.886 126.83C319.166 130.46 323.616 135.71 326.126 141.61C328.066 146.18 328.876 151.24 328.746 156.18L334.306 156.32C334.596 146.96 331.596 137.33 325.556 130.06Z" fill="#9B52A4"/>
<path d="M325.556 130.06C319.196 122.4 310.726 117.48 300.916 116L296.386 115.61L296.176 121.11C302.436 121.45 308.676 123.25 313.886 126.83C319.166 130.46 323.616 135.71 326.126 141.61C328.066 146.18 328.876 151.24 328.746 156.18L334.306 156.32C334.596 146.96 331.596 137.33 325.556 130.06Z" fill="#9B52A4"/>
<path d="M316.776 136.79C312.306 131.41 305.856 127.83 298.966 126.88L296.046 126.69L295.836 132.19C299.926 132.46 303.926 133.57 307.376 135.85C314.076 140.28 317.956 147.71 317.666 155.7L323.096 155.95C323.226 155.9 323.226 155.8 323.256 155.69C323.356 155.28 323.276 153.98 323.256 153.48C322.956 147.43 320.676 141.47 316.786 136.78L316.776 136.79Z" fill="#9B52A4"/>
<path d="M308.357 144.05C305.217 140.16 300.577 137.95 295.637 137.7L295.457 143.2C296.377 143.46 297.327 143.48 298.277 143.76C303.437 145.28 306.767 150.04 306.587 155.37L311.947 155.58C312.077 155.59 312.127 155.57 312.177 155.44C312.277 155.17 312.087 153 312.037 152.56C311.647 149.54 310.287 146.42 308.367 144.05H308.357Z" fill="#9B52A4"/>
<path d="M325.556 130.06C319.196 122.4 310.726 117.48 300.916 116L296.386 115.61L296.176 121.11C302.436 121.45 308.676 123.25 313.886 126.83C319.166 130.46 323.616 135.71 326.126 141.61C328.066 146.18 328.876 151.24 328.746 156.18L334.306 156.32C334.596 146.96 331.596 137.33 325.556 130.06Z" stroke="black" stroke-width="1.02" stroke-linejoin="round"/>
<path d="M325.556 130.06C319.196 122.4 310.726 117.48 300.916 116L296.386 115.61L296.176 121.11C302.436 121.45 308.676 123.25 313.886 126.83C319.166 130.46 323.616 135.71 326.126 141.61C328.066 146.18 328.876 151.24 328.746 156.18L334.306 156.32C334.596 146.96 331.596 137.33 325.556 130.06Z" stroke="black" stroke-width="1.02" stroke-linejoin="round"/>
<path d="M316.776 136.79C312.306 131.41 305.856 127.83 298.966 126.88L296.046 126.69L295.836 132.19C299.926 132.46 303.926 133.57 307.376 135.85C314.076 140.28 317.956 147.71 317.666 155.7L323.096 155.95C323.226 155.9 323.226 155.8 323.256 155.69C323.356 155.28 323.276 153.98 323.256 153.48C322.956 147.43 320.676 141.47 316.786 136.78L316.776 136.79Z" stroke="black" stroke-width="1.02" stroke-linejoin="round"/>
<path d="M308.357 144.05C305.217 140.16 300.577 137.95 295.637 137.7L295.457 143.2C296.377 143.46 297.327 143.48 298.277 143.76C303.437 145.28 306.767 150.04 306.587 155.37L311.947 155.58C312.077 155.59 312.127 155.57 312.177 155.44C312.277 155.17 312.087 153 312.037 152.56C311.647 149.54 310.287 146.42 308.367 144.05H308.357Z" stroke="black" stroke-width="1.02" stroke-linejoin="round"/>
<path d="M298.289 156.66C300.487 156.66 302.269 154.878 302.269 152.68C302.269 150.482 300.487 148.7 298.289 148.7C296.091 148.7 294.309 150.482 294.309 152.68C294.309 154.878 296.091 156.66 298.289 156.66Z" fill="#9B52A4" stroke="black" stroke-width="1.02" stroke-linejoin="round"/>
<path d="M684.101 358.74C682.261 357.84 680.701 357.24 679.331 356.9C678.391 356.66 677.301 356.54 676.081 356.54C675.691 356.54 675.291 356.55 674.891 356.58L667.531 357.06L669.121 334.58L676.551 334.97C678.511 335.06 680.381 335.3 682.081 335.68C683.751 336.06 685.411 336.59 687.021 337.25C688.491 337.86 690.101 338.58 691.801 339.41L691.951 339.49L694.801 341.2L690.741 361.68L684.111 358.75L684.101 358.74Z" fill="black"/>
<path d="M269.191 315.31C268.691 317.06 268.191 318.81 267.681 320.56C265.391 316.94 261.501 311.79 255.391 307.06C247.751 301.15 240.181 298.66 235.641 297.54C236.171 295.04 236.701 292.55 237.231 290.05C241.651 290.84 253.171 293.55 262.071 303.68C265.691 307.8 267.861 312.01 269.191 315.3V315.31Z" fill="#F7941D" stroke="#231F20" stroke-width="0.65" stroke-miterlimit="10"/>
<path d="M217.922 289.19C218.192 288.04 218.582 286.94 218.972 285.88C219.332 284.87 219.712 283.83 219.982 282.73L237.452 292.39L234.732 305.18L217.932 289.19H217.922Z" fill="#F7941D"/>
<path d="M220.18 283.22L228.11 287.61L237.07 292.56L234.52 304.55L226.68 297.09L218.27 289.09C218.53 288.03 218.89 287.04 219.26 285.99C219.58 285.1 219.91 284.18 220.17 283.22M219.76 282.24C219.22 284.7 218.11 286.84 217.57 289.3L234.92 305.82C235.88 301.29 236.85 296.76 237.81 292.23C231.61 288.8 225.96 285.68 219.76 282.25V282.24Z" fill="#231F20"/>
<path d="M269.102 315.41C265.122 309.2 259.792 303.8 253.692 299.78C248.692 296.49 243.192 294.09 237.342 292.65L237.022 292.57L235.222 301.03L220.152 282.21C223.392 280.87 226.712 279.62 230.022 278.48C234.382 276.99 238.852 275.66 243.322 274.53L241.402 283.54L241.712 283.61C251.412 285.91 260.532 290.44 268.072 296.7C273.342 301.08 277.862 306.27 281.502 312.13L269.102 315.4V315.41Z" fill="#20BCA5"/>
<path d="M242.891 274.98L242.141 278.51L241.151 283.17L241.021 283.79L241.641 283.94C251.291 286.23 260.361 290.73 267.871 296.96C273.001 301.22 277.411 306.26 281.001 311.94L273.161 314.01L269.261 315.04C265.271 308.88 259.961 303.52 253.881 299.52C248.851 296.21 243.311 293.79 237.431 292.34L236.781 292.18L236.641 292.83L235.701 297.23L235.051 300.29L220.671 282.34C223.781 281.06 226.961 279.87 230.131 278.78C234.321 277.35 238.611 276.06 242.901 274.96M243.741 274.09C239.401 275.17 234.761 276.51 229.911 278.18C226.261 279.43 222.831 280.74 219.621 282.08C224.881 288.64 230.131 295.2 235.391 301.77L237.261 292.97C241.351 293.98 247.281 295.96 253.511 300.06C261.631 305.4 266.441 311.83 268.961 315.79C273.311 314.64 277.661 313.49 282.011 312.35C279.321 307.95 274.971 302.02 268.281 296.47C258.141 288.05 247.721 284.72 241.791 283.31C242.441 280.24 243.101 277.17 243.751 274.1L243.741 274.09Z" fill="#231F20"/>
<path d="M427.931 382.55L426.431 382.99C423.471 383.86 420.491 384.67 417.571 385.38C415.081 385.99 412.581 386.33 410.141 386.37L409.441 386.2L409.231 386.17C406.361 385.73 404.781 384.41 403.941 381.75C402.931 378.55 403.511 374.47 405.661 369.65L430.221 315.48L383.671 299.91L374.451 319.6H373.901C365.781 319.6 359.511 316.62 354.731 310.51L338.151 289.25L300.191 283.4L282.221 288.75V298.21C282.221 309.97 282.491 321.85 283.021 333.52C283.551 345.19 284.031 356.92 284.471 368.74L286.461 416.72C287.121 426.77 289.731 435.65 294.161 443.32L246.801 427.28C248.171 426.8 249.551 426.27 250.921 425.68C258.421 422.48 264.691 418.12 269.571 412.71C274.821 406.88 277.331 400.19 277.011 392.69L274.241 354.37C274.201 342.32 269.911 331.93 261.471 323.49C253.131 315.16 242.881 310.87 231.011 310.73C227.051 309.74 222.821 309.24 218.451 309.24C216.941 309.24 215.381 309.3 213.821 309.42C212.411 309.53 211.001 309.58 209.631 309.58C205.861 309.58 202.231 309.16 198.831 308.34C195.091 307.44 192.101 304.53 189.701 299.44C188.951 297.85 187.351 296.84 185.601 296.84H158.081C155.541 296.84 153.551 299.04 153.821 301.58L156.101 323.19C157.011 331.03 159.421 337.07 163.261 341.12C167.041 345.11 171.431 347.71 176.311 348.84C179.871 349.66 183.311 350.08 186.521 350.08C187.311 350.08 188.081 350.06 188.841 350.01C192.261 349.8 194.591 349.69 195.761 349.69H207.401C210.541 349.69 213.041 350.62 215.051 352.54C217.131 354.53 218.301 356.98 218.641 360.1L221.401 383.78C221.541 386.45 220.621 388.56 218.501 390.42C216.121 392.51 213.401 393.53 210.181 393.53H173.031C168.551 393.53 164.661 395.12 161.461 398.26C158.231 401.43 156.601 405.36 156.601 410.05L157.221 440.54C157.281 443.55 159.171 446.22 162.001 447.27L268.651 487.01C272.631 488.49 277.111 487.38 279.931 484.21L300.371 461.28C302.711 458.66 306.681 458.38 309.411 460.59C315.771 465.74 322.911 469.85 330.761 472.83C342.251 477.19 353.201 479.4 363.311 479.4C372.571 479.4 381.101 479.06 388.641 478.39C396.251 477.71 403.101 476.7 408.991 475.39C415.011 474.05 420.311 472.32 424.731 470.25C429.271 468.13 433.111 465.65 436.161 462.9C439.371 460 441.801 456.67 443.371 452.99L443.481 452.72C445.651 446.58 447.271 437.37 448.411 424.57C449.501 412.45 450.621 402.79 451.741 395.87C452.081 393.77 450.921 391.72 448.941 390.93L427.921 382.55H427.931ZM399.301 415.98C399.101 419.57 398.591 422.92 397.791 425.91C397.141 428.36 396.011 430.27 394.341 431.75C392.891 433.04 390.201 433.72 386.571 433.72C375.711 433.72 366.201 433.16 358.311 432.04C350.901 431 345.151 429.1 341.211 426.38C337.781 424.02 336.031 420.83 335.691 416.38C335.351 411.5 335.171 406.36 335.171 401.03L334.421 346.26C337.471 348.75 341.011 350.8 345.011 352.41C350.691 354.7 356.491 355.86 362.241 355.86C362.741 355.86 363.241 355.86 363.751 355.83C363.331 357.64 362.851 359.49 362.321 361.36C361.111 365.57 359.981 369.79 358.971 373.89C357.871 378.33 357.321 382.5 357.321 386.29C357.321 391.41 359.581 396.23 364.021 400.62C367.981 404.53 372.891 407.75 378.601 410.17C381.971 411.59 385.691 412.31 389.651 412.31C392.781 412.31 396.121 411.86 399.651 410.96C399.511 412.63 399.401 414.3 399.311 415.98H399.301Z" fill="black"/>
<path d="M530.092 257.26H502.762V348.64H530.092V257.26Z" fill="black"/>
<path d="M477.121 348.64V332.84C476.201 335.06 474.831 337.09 473.011 338.91C469.371 342.55 464.901 344.4 459.721 344.4H427.291C423.281 344.4 419.771 343.07 416.831 340.45C413.891 337.83 412.171 334.45 411.721 330.41L406.211 281.67L406.951 281.63V257.39H506.501L506.561 261.82V348.64H477.111H477.121ZM430.781 286.8V286.52C430.781 285.21 431.061 283.97 431.591 282.84H430.441L430.781 286.8Z" fill="black"/>
<path d="M577.452 342.56L577.292 328.13V328.03C577.362 326.12 578.042 324.4 579.292 322.97C578.002 321.62 577.292 319.92 577.292 318.08V314.89L575.582 314.41C573.192 317.26 569.732 319.22 565.262 320.27L565.132 320.3L565.002 320.32C563.072 320.65 561.102 320.82 559.152 320.82H542.812C538.562 320.82 534.832 319.55 531.712 317.05L531.102 316.57L531.012 316.49C527.672 313.56 526.972 310.34 526.972 308.15V294.8H550.992V307.09H552.002L552.312 307.01C553.122 306.73 553.532 306.48 553.722 306.34V290.63C553.722 290.63 553.342 290.07 551.542 289.56L538.522 287.77L533.832 282.84H526.352V257.38H633.202V282.84H601.642V292.37H621.532C624.022 292.37 626.232 293.11 628.102 294.58C630.222 296.26 631.392 298.57 631.392 301.1V322.24C631.392 324.62 630.612 328.15 626.902 331.39C625.672 332.47 624.292 333.44 622.772 334.28L639.822 340.18L619.472 358.45L577.462 342.54L577.452 342.56Z" fill="black"/>
<path d="M655.08 257.38H627.75V348.64H655.08V257.38Z" fill="black"/>
<path d="M689.179 348.52V341.9C689.179 341.9 689.129 341.85 688.979 341.83L659.109 336.85L658.709 336.7C655.319 335.43 653.379 332.8 653.379 329.49V294.56C653.379 291.64 654.949 289.16 657.679 287.74L657.969 287.59L672.189 282.77H651.879V257.38H713.589C715.029 257.38 716.189 258.54 716.189 259.98V282.77H715.939V344.21C715.939 346.58 714.019 348.51 711.639 348.51H689.169L689.179 348.52ZM688.559 316.12V307.12L676.079 310.12L676.409 312.17L688.559 316.13V316.12Z" fill="black"/>
<path d="M204.962 267.14C202.732 267.14 200.922 265.33 200.922 263.1V162.71C200.922 155.84 203.042 149.66 207.222 144.35C211.372 139.07 216.882 135.49 223.572 133.7L284.332 118.7C285.622 118.38 286.872 119.36 286.872 120.69V147.67C286.872 149.65 285.482 151.37 283.542 151.79L234.982 162.23C234.722 162.3 234.612 162.4 234.492 162.54C234.392 162.66 234.332 162.76 234.332 163.06V262.88C234.332 265.23 232.432 267.13 230.082 267.13H204.952L204.962 267.14Z" fill="black"/>
<path d="M272.002 263.7V263.01C272.002 261.02 270.562 259.33 268.602 259L237.862 253.83L237.412 253.66C233.572 252.22 231.362 249.21 231.362 245.41V205.83C231.362 202.57 233.102 199.75 236.132 198.09L236.522 197.88L252.602 192.46H229.672V163.57H302.392V263.96C302.392 265.72 300.962 267.16 299.192 267.16H275.452C273.552 267.16 272.002 265.62 272.002 263.71V263.7ZM271.292 230.23V220.07L257.132 223.41L257.502 225.73L271.292 230.23Z" fill="black"/>
<path d="M384.638 288.83V286.91C384.638 284.88 383.148 283.17 381.138 282.88L354.238 279.08L353.918 278.99C347.998 277.32 347.538 272.91 347.538 271.6V245.41C347.538 244.59 347.688 243.11 348.618 241.6C349.158 240.73 348.898 239.6 348.128 238.92C348.098 238.89 348.058 238.86 348.028 238.83C347.108 237.99 345.758 237.79 344.718 238.47C342.538 239.88 340.058 240.66 337.388 240.8L320.058 241.51C319.808 241.51 319.638 241.51 319.458 241.51C316.988 241.51 314.858 241.02 313.148 240.04C311.468 239.08 310.008 237.71 308.838 235.97L302.938 227.75C301.278 225.42 300.448 222.84 300.448 220.04V199.77L323.918 197.03C324.908 196.91 325.848 197.48 326.218 198.4L330.138 208.19C330.538 209.18 331.908 209.23 332.388 208.28C332.898 207.27 333.238 206.15 333.418 204.9L334.238 198.84C334.248 198.62 334.238 198.4 334.178 198.19L331.728 193.98C331.228 193.13 330.308 192.61 329.318 192.65L297.858 193.66L297.648 163.54H335.488C336.148 163.54 336.768 163.87 337.128 164.43C338.378 166.35 340.798 167.14 342.948 166.34L348.518 164.26C349.798 163.78 351.158 163.54 352.528 163.54H413.518V292.33H388.138C386.198 292.33 384.618 290.76 384.618 288.81L384.638 288.83ZM383.928 262.17V257.3L374.588 259.4L383.928 262.18V262.17ZM364.958 200.97C364.818 201.91 364.818 202.84 364.958 203.77V200.97Z" fill="black"/>
<path d="M439.508 163.56H408.488V267.14H439.508V163.56Z" fill="black"/>
<path d="M504.141 267.14V234.44L503.871 234.39C503.661 235.75 503.421 237.19 503.161 238.69C502.341 243.35 500.421 247.43 497.441 250.83C494.391 254.3 490.561 256.64 486.051 257.78C483.521 258.44 480.831 258.78 478.111 258.78H456.801C451.241 258.78 446.361 256.69 442.291 252.56L442.131 252.4L441.391 251.5C438.361 248 436.821 244.02 436.821 239.66V219.48H464.511C465.761 219.48 466.781 220.49 466.781 221.75V233.69C466.831 233.73 466.911 233.78 467.021 233.84L468.681 233.8L469.241 233.61C470.141 233.31 470.781 232.88 471.261 232.25C471.681 231.7 471.861 231.16 471.861 230.45V209.85C471.861 208.85 471.581 208.07 470.941 207.31C470.231 206.47 469.371 205.9 468.261 205.55L453.721 203.03C452.011 202.73 450.491 201.78 449.471 200.38L445.281 194.6C444.291 193.24 442.711 192.43 441.021 192.43H435.621V163.54H534.521C536.441 163.54 538.001 165.1 538.001 167.02V192.43H537.581V267.12H504.151L504.141 267.14ZM504.141 207.77V192.46H493.751C498.961 196.32 502.371 201.45 503.941 207.76L504.141 207.78V207.77Z" fill="black"/>
<path d="M573.849 251.67C568.509 251.67 564.519 250.49 561.669 248.07C558.809 245.64 556.869 242.03 555.909 237.33C555.119 233.47 554.459 228.48 553.929 222.5L550.479 189.54C550.369 188.52 551.149 187.61 552.179 187.57L573.129 186.62V178.37C573.129 175.74 573.679 173.3 574.759 171.11C575.929 168.73 577.769 166.81 580.219 165.42C582.559 164.09 585.469 163.41 588.859 163.41H611.179C613.379 163.41 615.189 163.55 616.739 163.83C618.599 164.17 620.129 164.74 621.419 165.58C622.889 166.53 624.009 167.78 624.739 169.3C625.339 170.53 625.739 171.96 625.919 173.56C626.069 174.83 626.139 176.26 626.139 177.81V194.04C626.139 197.36 625.699 199.9 624.789 201.81C624.489 202.45 624.149 203.04 623.789 203.58C624.579 204.29 625.249 205.06 625.799 205.91C626.789 207.42 627.449 209.01 627.769 210.65C628.039 212.02 628.169 213.14 628.169 214.07V230.68C628.169 234.16 627.889 237.17 627.329 239.62C626.649 242.6 625.329 245.06 623.389 246.93C621.479 248.78 618.869 250.07 615.629 250.77C612.869 251.37 609.439 251.66 605.139 251.66H574.449C574.299 251.66 574.059 251.66 573.829 251.66L573.849 251.67ZM580.019 211.18C580.309 214.52 580.639 217.28 580.999 219.5C581.209 220.75 581.579 221.68 582.059 222.11C582.169 222.19 582.789 222.42 584.099 222.42C584.419 222.42 584.759 222.41 585.109 222.38H585.269L593.799 222.37C595.629 222.37 597.199 222.31 598.539 222.22C594.449 218.56 592.349 213.82 592.459 208.46C592.479 207.81 592.559 207.19 592.699 206.59H580.859C580.399 206.59 579.949 206.55 579.509 206.47L580.019 211.18Z" fill="black"/>
<path d="M281.909 124.71C281.909 122.77 280.089 121.35 278.209 121.81L224.849 134.98C219.189 136.49 214.609 139.47 211.119 143.9C207.629 148.34 205.879 153.43 205.879 159.19V254.44C205.879 256.77 207.769 258.66 210.099 258.66H225.529C227.659 258.66 229.389 256.93 229.389 254.8V159.54C229.389 158.17 229.799 156.97 230.629 155.93C231.459 154.89 232.529 154.21 233.849 153.88L279.339 144.1C280.849 143.78 281.919 142.45 281.919 140.91V124.7L281.909 124.71Z" fill="#14AC9D"/>
<path d="M236.819 183.98H276.959V185.19C276.959 185.65 276.669 186.06 276.229 186.2L238.519 198.91C237.059 199.71 236.329 200.85 236.329 202.31V241.89C236.329 243.59 237.269 244.79 239.159 245.5L272.719 251.09C273.949 251.28 274.959 251.85 275.759 252.79C276.559 253.73 276.959 254.82 276.959 256.05V256.19C276.959 257.56 278.069 258.67 279.439 258.67H294.819C296.259 258.67 297.429 257.5 297.429 256.06V183.98V171.31V167.19C297.429 165.99 296.449 165.01 295.249 165.01H236.849C235.619 165.01 234.629 166 234.629 167.23V181.79C234.629 183 235.609 183.98 236.819 183.98ZM276.249 232.83L274.899 233.11L255.149 226.67C254.019 226.06 253.209 225.14 252.739 223.91L251.959 219.03C251.769 217.52 252.339 216.39 253.659 215.63L271.639 211.38C272.579 211.14 273.349 211.01 273.939 210.99C274.529 210.97 274.979 211.01 275.289 211.13C275.599 211.25 275.819 211.4 275.959 211.59C276.099 211.78 276.199 212.01 276.239 212.3V232.83H276.249Z" fill="#14AC9D"/>
<path d="M339.4 169.47C339.17 170.59 337.7 170.87 337.08 169.91L333.88 165H302.66L302.8 185.04L331.22 184.13C332.77 184.08 334.23 184.89 335.01 186.23L338.77 192.69C339.15 193.73 339.29 194.79 339.19 195.88L338.34 202.11C337.73 206.45 335.63 209.92 332.04 212.52C330.01 213.51 328.45 213.04 327.37 211.1L323.01 200.21C322.66 199.33 321.75 198.79 320.81 198.9L307.64 200.44C306.38 200.59 305.42 201.66 305.42 202.93V216.56C305.42 218.31 305.94 219.91 306.98 221.37L312.93 229.65C313.68 230.78 314.58 231.64 315.62 232.23C316.66 232.82 318.07 233.09 319.87 233.04L337.14 232.33C339.83 232.19 342.1 231.15 343.94 229.21L344.65 228.43C346.04 226.88 346.82 225.11 347.08 223.13L350.17 230.06C351.16 231.85 352.55 232.75 354.35 232.75H373.04C374.27 232.75 375.35 232.3 376.3 231.4L380.05 227.65C380.95 226.66 381.39 225.55 381.39 224.32V192.74H369.92V214.97C369.92 216.01 369.54 216.91 368.79 217.66C368.04 218.41 367.14 218.79 366.1 218.79H365.89L360.72 203.64C359.82 201.05 359.66 198.43 360.22 195.78L363.41 185.02H385.71L386.56 198.05V230.53L354.63 239.32C353.21 239.93 352.51 240.78 352.51 241.87V268.06C352.51 269.29 353.43 270.16 355.27 270.68L385.36 274.93C386.59 275.07 387.6 275.48 388.4 276.17C389.2 276.86 389.6 277.67 389.6 278.61V283.85H408.57V164.98H355.02C352.6 164.98 350.2 165.41 347.94 166.26L339.4 169.44V169.47ZM388.89 264.62L387.54 264.9L371.33 260.09C370.15 259.62 369.35 258.93 368.92 258.04L368.07 254.36C367.88 253.23 368.45 252.4 369.77 251.88L384.28 248.62C385.46 248.38 386.37 248.29 387.01 248.34C387.65 248.39 388.1 248.48 388.36 248.62C388.62 248.76 388.8 249 388.89 249.33V264.62Z" fill="#14AC9D"/>
<path d="M434.561 165.01H413.461V258.67H434.561V165.01Z" fill="#14AC9D"/>
<path d="M440.571 183.98H446.221L453.881 194.53L469.381 197.22C471.481 197.81 473.211 198.89 474.581 200.45C476.061 202.14 476.811 204.34 476.811 206.58V226.95C476.811 228.75 476.271 230.35 475.181 231.76C474.091 233.18 472.631 234.19 470.791 234.8L469.521 235.22L466.191 235.29L465.481 235.08C463.021 234.04 461.801 232.44 461.801 230.27V224.39C461.801 222.48 460.251 220.92 458.331 220.92H444.441C442.961 220.92 441.761 222.12 441.761 223.6V236.14C441.761 239.3 442.891 242.18 445.161 244.78L445.801 245.56C448.911 248.72 452.571 250.3 456.771 250.3H478.081C480.391 250.3 482.631 250.02 484.811 249.45C488.351 248.55 491.311 246.75 493.691 244.03C496.071 241.32 497.601 238.07 498.261 234.29C498.881 230.77 499.341 227.71 499.631 225.09L509.091 226.73V258.65H532.591V183.96H533.011V168.55C533.011 166.58 531.421 164.99 529.451 164.99H440.551V183.96L440.571 183.98ZM509.101 209.68L499.751 208.84C498.811 201.07 495.011 195.2 488.281 191.27C484.741 189.34 480.091 186.91 474.361 183.98H509.091V209.68H509.101Z" fill="#14AC9D"/>
<path d="M623.408 208.62C623.198 207.54 622.758 206.49 622.078 205.45C621.398 204.41 620.408 203.53 619.098 202.79C618.038 202.19 616.668 201.85 615.028 201.73C615.328 201.54 615.638 201.35 615.988 201.2C616.828 200.84 617.688 200.38 618.558 199.8C619.428 199.23 620.168 198.3 620.778 197.01C621.388 195.72 621.698 193.77 621.698 191.15V174.92C621.698 173.52 621.638 172.28 621.508 171.18C621.378 170.08 621.128 169.14 620.748 168.36C620.368 167.58 619.788 166.93 619.008 166.43C618.228 165.92 617.198 165.55 615.928 165.32C614.658 165.09 613.078 164.97 611.178 164.97H588.858C586.238 164.97 584.088 165.45 582.418 166.4C580.748 167.35 579.518 168.62 578.738 170.2C577.958 171.78 577.568 173.55 577.568 175.49V195.97C577.568 196.86 577.898 197.63 578.548 198.28C579.198 198.93 579.978 199.26 580.858 199.26H595.818C596.708 199.26 597.388 198.94 597.878 198.31C598.368 197.68 598.758 196.92 599.048 196.03L599.558 193.37C599.688 192.57 599.728 191.76 599.688 190.96L599.178 182.34C599.008 181.71 598.648 181.39 598.098 181.39H594.548C593.958 181.39 593.618 181.75 593.528 182.47V187.48H587.698V181.01C587.698 179.36 588.088 178.25 588.868 177.68C589.648 177.11 590.578 176.81 591.658 176.79C592.738 176.77 593.718 176.76 594.608 176.76H598.408C599.928 176.76 601.088 176.91 601.898 177.2C602.698 177.5 603.238 177.99 603.518 178.69C603.788 179.39 603.928 180.31 603.928 181.45V194.57C603.928 195.97 603.828 197.22 603.638 198.34C603.448 199.46 602.988 200.36 602.278 201.03C601.558 201.71 600.438 202.05 598.918 202.05L598.478 202.43C597.458 203.28 596.938 204.35 596.888 205.66C596.798 209.93 598.478 213.5 601.898 216.37L603.098 217.57L610.398 215.03C610.478 215.36 610.518 215.74 610.518 216.17V217.31C610.518 219.72 609.148 221.42 606.398 222.41C603.648 223.4 599.448 223.9 593.778 223.9H585.408C582.448 224.11 580.338 223.65 579.068 222.5C577.798 221.36 576.978 219.63 576.598 217.3C576.218 214.97 575.878 212.12 575.588 208.74L573.368 188.14L557.458 188.86C556.218 188.92 555.288 190 555.418 191.24L558.348 219.21C558.858 225.04 559.488 229.82 560.248 233.54C561.008 237.26 562.438 240.01 564.528 241.78C566.618 243.55 569.928 244.4 574.448 244.32H605.138C609.068 244.32 612.248 244.06 614.678 243.53C617.108 243 618.978 242.1 620.288 240.84C621.598 239.58 622.498 237.87 622.978 235.74C623.468 233.61 623.708 230.95 623.708 227.78V211.17C623.708 210.54 623.598 209.68 623.388 208.6L623.408 208.62Z" fill="#FA5F33"/>
<path d="M525.719 258.8H507.129V341.44H525.719V258.8Z" fill="#F28C20"/>
<path d="M502.139 258.92H413.339C412.229 258.92 411.329 259.82 411.329 260.93V275.64H481.499V304.02H474.139V283.69C474.139 282.53 473.729 281.54 472.919 280.73C472.109 279.92 471.119 279.51 469.959 279.51L439.399 279.45C438.189 279.49 437.179 279.92 436.369 280.73C435.559 281.54 435.149 282.53 435.149 283.69V311.32C435.149 312.4 435.519 313.32 436.269 314.06C437.019 314.8 437.929 315.18 439.009 315.18H452.979C453.939 315.18 454.769 314.89 455.469 314.31C456.179 313.73 456.609 312.96 456.779 312L457.089 310.38C457.709 306.68 457.919 302.96 457.709 299.22L457.399 293.36C457.319 292.74 456.939 292.36 456.279 292.24L453.289 291.93C452.419 292.06 451.979 292.47 451.979 293.18V300.98H446.869V291.44C446.869 290.55 447.169 289.68 447.749 289.01C448.519 288.13 449.449 287.7 450.549 287.7H457.219C458.969 287.7 460.459 288.32 461.709 289.57C462.959 290.82 463.579 292.31 463.579 294.06V312.96C463.579 314.71 462.959 316.2 461.709 317.45C460.459 318.7 458.969 319.32 457.219 319.32H436.699C434.449 319.32 432.649 318.99 431.299 318.32C429.949 317.66 429.169 316.24 428.959 314.08L426.219 282.08L411.059 282.95L416.049 327.11C416.379 330.06 417.609 332.49 419.729 334.38C421.849 336.27 424.369 337.22 427.279 337.22H459.709C463.699 337.22 467.099 335.82 469.909 333.01C472.719 330.2 474.119 326.8 474.119 322.81V319.38H481.479V341.46H502.189V259.01H502.129V258.95L502.139 258.92Z" fill="#F28C20"/>
<path d="M616.619 329.43C619.549 328.41 622.019 327.03 624.009 325.28C625.999 323.53 626.999 321.58 626.999 319.42V298.28C626.999 297.07 626.459 296.05 625.379 295.19C624.299 294.34 623.009 293.91 621.509 293.91H597.249V275.64H628.809V258.92H530.699V275.64H535.689L540.619 280.82L552.409 282.44C556.189 283.44 558.089 285.23 558.089 287.8V303.77C558.089 305.85 556.569 307.39 553.539 308.38L552.539 308.63H549.979L549.479 308.51C547.569 307.93 546.609 306.99 546.609 305.7V296.34H531.329V305.32C531.329 307.19 532.179 308.88 533.889 310.37L534.449 310.81C536.779 312.68 539.559 313.62 542.809 313.62H559.149C560.849 313.62 562.559 313.48 564.259 313.18C568.929 312.08 572.059 309.84 573.689 306.5L581.659 308.73V315.23C581.659 316.06 582.019 316.78 582.749 317.38C583.479 317.98 584.359 318.29 585.399 318.29H601.179C602.679 318.29 603.939 317.86 604.979 317.01C606.019 316.16 606.539 315.15 606.539 313.98V305.87C606.369 305.04 605.869 304.62 605.039 304.62H600.989C599.989 304.74 599.489 305.16 599.489 305.87V306.87H593.439V303.44C593.439 302.61 593.829 301.9 594.619 301.32C595.409 300.74 596.369 300.45 597.489 300.45H607.409C608.699 300.45 609.619 300.68 610.189 301.14C610.749 301.6 611.099 302.21 611.249 302.98C611.399 303.75 611.469 304.61 611.469 305.57V316.05C611.469 317.46 610.789 318.67 609.439 319.67C608.089 320.67 606.459 321.17 604.539 321.17H586.829C585.419 321.17 584.209 321.58 583.209 322.39C582.209 323.2 581.689 324.19 581.649 325.35L581.769 336.7L618.509 350.61L631.359 339.07L607.909 330.96C610.779 330.96 613.679 330.45 616.609 329.43H616.619ZM558.649 275.64H579.979V294.42L575.929 294V292.54C575.929 292.04 575.869 291.15 575.739 289.86C575.239 284.99 572.289 281.36 566.879 278.94L558.649 275.63V275.64Z" fill="#F28C20"/>
<path d="M650.711 258.92H632.121V341.44H650.711V258.92Z" fill="#F28C20"/>
<path d="M685.509 338.07C684.099 337.49 682.659 337.03 681.209 336.7C679.749 336.37 678.129 336.16 676.349 336.08L672.789 335.89L671.789 349.99L674.659 349.8C676.779 349.68 678.659 349.82 680.299 350.24C681.939 350.66 683.739 351.34 685.699 352.3L687.819 353.24L690.379 340.33L690.069 340.14C688.449 339.35 686.929 338.67 685.519 338.08L685.509 338.07Z" fill="#F28C20"/>
<path d="M708.76 258.92H656.25V275.57H693.55V277.32L659.68 288.8C658.39 289.47 657.75 290.44 657.75 291.73V326.66C657.75 328.12 658.58 329.15 660.25 329.78L689.81 334.71C691.02 334.94 691.99 335.55 692.73 336.53C693.28 337.26 693.55 338.16 693.55 339.08V341.33H707.51C709.75 341.33 711.57 339.51 711.57 337.27V275.6H711.82V262.01C711.82 260.32 710.45 258.95 708.76 258.95V258.92ZM692.93 318.61L691.75 318.92L674.35 313.25C673.35 312.71 672.64 311.9 672.23 310.82L671.54 306.52C671.37 305.19 671.87 304.19 673.04 303.53L688.88 299.73C689.71 299.52 690.39 299.41 690.91 299.39C691.43 299.37 691.82 299.41 692.09 299.51C692.36 299.61 692.56 299.75 692.68 299.92C692.8 300.09 692.89 300.29 692.93 300.54V318.63V318.61Z" fill="#F28C20"/>
<path d="M159.198 399.01C159.198 395.66 160.368 392.84 162.698 390.55C165.038 388.26 167.838 387.11 171.098 387.11H208.258C212.578 387.11 216.348 385.7 219.568 382.88C222.788 380.06 224.258 376.58 223.998 372.43L221.218 348.63C220.778 344.49 219.128 341.05 216.258 338.32C213.398 335.59 209.798 334.22 205.478 334.22H193.838C192.518 334.22 190.108 334.33 186.628 334.55C183.148 334.77 179.398 334.42 175.388 333.49C171.378 332.56 167.788 330.43 164.608 327.08C161.438 323.73 159.448 318.62 158.658 311.74L156.828 294.42C156.608 292.3 158.268 290.45 160.398 290.45H179.978C182.138 290.45 184.128 291.6 185.258 293.45C188.048 298.01 191.568 300.8 195.818 301.82C200.928 303.06 206.398 303.45 212.218 303.01C218.038 302.57 223.458 303.01 228.478 304.33C239.408 304.33 248.688 308.14 256.318 315.77C263.938 323.4 267.758 332.67 267.758 343.61L270.538 382.09C270.798 388.26 268.708 393.82 264.258 398.75C259.808 403.69 254.118 407.63 247.198 410.59C240.278 413.54 233.468 415.02 226.768 415.02L301.348 440.28L276.268 468.41C273.688 471.3 269.608 472.31 265.978 470.96L164.838 433.27C161.838 432.15 159.828 429.32 159.758 426.12L159.208 399.03L159.198 399.01Z" fill="#F69022"/>
<path d="M406.6 379.7L407.66 379.96C410.66 379.96 413.68 379.59 416.72 378.84C417.26 378.71 417.79 378.57 418.32 378.44C423.31 377.17 428.57 377.51 433.36 379.42L441.8 382.79C443.86 383.61 445.09 385.74 444.78 387.93C443.83 394.54 442.9 402.97 441.98 413.22C440.88 425.52 439.31 434.53 437.29 440.26C435.97 443.35 433.94 446.12 431.21 448.59C428.48 451.06 425.04 453.26 420.89 455.2C416.75 457.14 411.81 458.75 406.08 460.03C400.35 461.31 393.76 462.28 386.31 462.94C378.86 463.6 370.55 463.93 361.39 463.93C352.23 463.93 341.47 461.84 330.45 457.65C319.43 453.46 310 447.05 302.15 438.41C294.3 429.77 289.94 418.8 289.06 405.49L287.08 357.62C286.64 345.81 286.15 334.06 285.63 322.38C285.1 310.7 284.84 299 284.84 287.27V286.29C284.84 283.26 286.83 280.59 289.74 279.72L293.56 278.58C296.87 277.59 300.37 277.35 303.79 277.88L327.44 281.53C331.51 282.16 335.18 284.31 337.71 287.56L349.24 302.35C354.88 309.58 362.46 313.19 371.98 313.19H375.42L384.15 294.55L418.16 305.93C420.27 306.63 421.3 309.01 420.38 311.03L399.62 356.83C396.97 362.74 396.34 367.85 397.7 372.17C399.07 376.49 402.04 379 406.62 379.71L406.6 379.7ZM378.44 395.04C373.24 392.84 368.85 389.97 365.28 386.44C361.71 382.92 359.93 379.21 359.93 375.33C359.93 371.89 360.44 368.12 361.45 364.02C362.46 359.92 363.57 355.8 364.76 351.66C365.95 347.52 366.85 343.55 367.47 339.76H367.21C359.72 341.08 352.24 340.24 344.8 337.25C337.35 334.25 331.82 329.63 328.21 323.37L327.81 322.58L328.74 390.15C328.74 395.53 328.91 400.73 329.27 405.75C329.71 411.57 332.2 416.04 336.74 419.17C341.28 422.3 347.63 424.44 355.78 425.58C363.93 426.73 373.57 427.3 384.67 427.3C389.52 427.3 393.11 426.26 395.45 424.19C397.79 422.12 399.39 419.43 400.28 416.12C401.16 412.82 401.71 409.2 401.93 405.28C402.15 401.36 402.48 397.5 402.92 393.71L398.69 395.03C390.84 397.41 384.1 397.41 378.46 395.03L378.44 395.04Z" fill="#18AB98"/>
<path d="M155.88 283.69C151.37 278.53 146.86 273.37 142.34 268.2C141.48 267.21 141.48 265.79 142.34 265.2L147.43 261.76C148.33 261.15 149.71 261.76 150.27 262.99C153.09 269.3 155.9 275.6 158.72 281.91C159.68 284.05 157.43 285.45 155.88 283.67V283.69Z" fill="#BE1E2D" stroke="#231F20" stroke-width="1.87" stroke-miterlimit="10"/>
<path d="M155.88 283.69C151.37 278.53 146.86 273.37 142.34 268.2C141.48 267.21 141.48 265.79 142.34 265.2L147.43 261.76C148.33 261.15 149.71 261.76 150.27 262.99C153.09 269.3 155.9 275.6 158.72 281.91C159.68 284.05 157.43 285.45 155.88 283.67V283.69Z" fill="#BE1E2D" stroke="#231F20" stroke-width="1.87" stroke-miterlimit="10"/>
<path d="M150.552 287.87C144.552 285.95 138.552 284.03 132.552 282.12C131.402 281.75 130.732 280.63 131.132 279.76L133.502 274.64C133.922 273.73 135.292 273.55 136.322 274.26C141.532 277.88 146.742 281.51 151.952 285.13C153.722 286.36 152.612 288.53 150.552 287.87Z" fill="#006838" stroke="#231F20" stroke-width="1.71" stroke-miterlimit="10"/>
<path d="M150.18 295.33C144.18 297.23 138.17 299.14 132.17 301.04C131.02 301.4 129.82 300.88 129.65 299.93L128.63 294.38C128.45 293.4 129.46 292.45 130.71 292.44C137.06 292.39 143.4 292.33 149.75 292.28C151.91 292.26 152.26 294.67 150.19 295.32L150.18 295.33Z" fill="#F15A29" stroke="#231F20" stroke-width="1.71" stroke-miterlimit="10"/>
<path d="M340.52 320.931C344.07 306.091 355.95 294.781 370.3 292.701C371.88 292.471 373.49 292.351 375.1 292.351C380.27 292.351 385.56 293.561 390.41 295.851C390.49 296.831 390.75 297.761 391.16 298.641C390.44 298.811 389.73 299.081 389.06 299.451L387.86 299.781C384.32 297.611 380.37 296.241 376.44 295.821C375.52 295.721 374.58 295.671 373.66 295.671C360.62 295.671 348.43 305.231 343.98 318.921L340.52 320.921V320.931Z" fill="#F57102"/>
<path d="M377.47 294.99C377.47 294.99 376.07 294.84 374.65 294.84C361.52 294.84 349.25 304.43 344.72 318.19L341.97 319.78C345.68 305.39 357.33 294.48 371.33 292.45C372.9 292.22 374.5 292.11 376.09 292.11C380.73 292.11 385.46 293.11 389.89 294.99C389.89 294.99 389.9 294.99 389.91 294.99C389.99 294.97 390.06 294.97 390.13 294.97C390.13 294.97 390.24 294.97 390.36 295C390.52 295.04 390.94 295.19 391.48 295.45C388.33 293.8 382.95 291.56 376.09 291.53C376.09 291.53 373.65 291.53 371.24 291.88C356.58 294.01 344.45 305.65 341.07 321.01C342.45 320.21 343.83 319.41 345.21 318.61C349.74 304.54 362.05 295.46 374.64 295.46C375.56 295.46 376.48 295.51 377.39 295.61C381.46 296.05 385.35 297.45 388.8 299.59C388.89 299.56 388.99 299.54 389.08 299.51C389.04 299.46 389.03 299.39 389 299.34C386.55 297.7 382.61 295.6 377.45 295.02L377.47 294.99Z" fill="black"/>
<path d="M344.748 318.801C345.858 315.231 347.518 311.931 349.678 308.991C355.988 300.411 364.138 295.761 373.228 295.551H373.848C378.708 295.551 383.408 296.851 387.808 299.431C384.968 300.251 382.438 301.031 380.098 301.831C378.668 301.561 377.068 301.431 375.488 301.431C370.308 301.431 365.518 302.831 361.658 305.471C358.108 307.901 355.238 311.481 353.368 315.821C352.238 316.021 351.118 316.311 350.048 316.681C348.428 317.241 346.878 317.991 345.418 318.921L344.738 318.801H344.748Z" fill="#51D0D6"/>
<path d="M375.81 301.15C369.08 300.8 364.04 303.72 361.81 305.24C358.25 307.67 355.37 311.24 353.48 315.57C352.39 315.77 351.31 316.05 350.27 316.41C348.67 316.96 347.12 317.7 345.68 318.62L345.5 318.59H345.45C346.55 315.16 348.16 312 350.23 309.18C356.49 300.68 364.55 296.07 373.55 295.87C373.76 295.87 373.96 295.87 374.16 295.87V295.28C373.95 295.28 373.74 295.28 373.53 295.28C359.48 295.6 351.49 306.46 349.75 308.84C346.89 312.73 345.44 316.51 344.68 319.07C345.05 319.13 345.43 319.2 345.8 319.26C346.98 318.5 348.53 317.66 350.46 316.99C351.72 316.56 352.88 316.29 353.89 316.12C354.94 313.65 357.3 309.06 362.14 305.75C362.14 305.75 368.02 301.71 375.81 301.76C378.25 301.78 380.33 302.34 380.33 302.34C380.92 302.5 381.39 302.66 381.71 302.78L383.36 302.93C381.74 302.23 379.12 301.33 375.81 301.16V301.15Z" fill="black"/>
<path d="M387.21 299.731C387.51 299.781 387.93 299.801 388.41 299.691C388.58 299.651 388.73 299.601 388.87 299.551C385.12 297.241 380.18 295.261 374.16 295.261V295.851C375.32 295.841 376.62 295.911 378.03 296.131C382.09 296.781 385.21 298.411 387.21 299.721V299.731Z" fill="black"/>
<path d="M339.919 348.871C338.509 348.091 334.099 345.431 332.019 339.921C331.689 339.051 329.049 331.701 333.299 325.511C335.479 322.341 338.459 320.941 339.459 320.511C342.649 319.161 345.489 319.311 346.779 319.461C344.489 329.261 342.209 339.061 339.919 348.861V348.871Z" fill="#F57102"/>
<path d="M340.72 350.671L339.35 349.911C337.08 348.661 332.96 345.751 330.91 340.341C330.36 338.891 327.86 331.331 332.32 324.841C334.5 321.671 337.43 320.091 338.99 319.421C342.13 318.081 345.03 318.061 346.91 318.291L348.23 318.441L340.72 350.661V350.671ZM345.09 320.571C343.63 320.571 341.83 320.811 339.92 321.621C338.6 322.181 336.11 323.521 334.27 326.201C330.48 331.721 332.65 338.261 333.12 339.521C334.54 343.281 337.13 345.651 339.13 347.011L345.29 320.581C345.22 320.581 345.15 320.581 345.08 320.581L345.09 320.571Z" fill="black"/>
<path d="M348.578 318.291C341.158 321.371 337.058 330.231 337.538 338.041C337.878 343.591 340.738 351.811 345.788 352.681C352.008 353.751 358.428 343.121 360.658 335.601C361.228 333.661 364.598 322.311 359.148 318.291C355.338 315.481 349.488 317.911 348.578 318.291Z" fill="#808285"/>
<path d="M346.658 353.951C346.298 353.951 345.948 353.921 345.588 353.861C339.828 352.871 336.718 344.061 336.348 338.121C335.868 330.351 339.758 320.671 348.118 317.201C350.338 316.281 355.918 314.441 359.858 317.341C365.188 321.271 363.358 330.691 361.798 335.951C359.558 343.491 353.338 353.961 346.658 353.961V353.951ZM354.638 318.151C352.278 318.151 349.958 319.011 349.038 319.391C341.778 322.401 338.308 331.211 338.728 337.971C339.048 343.181 341.758 350.791 345.998 351.521C351.318 352.441 357.388 342.491 359.528 335.271C360.638 331.511 362.768 322.441 358.448 319.251C357.338 318.431 355.978 318.151 354.628 318.151H354.638Z" fill="black"/>
<path d="M460.352 366.12V342.51H538.482V366.12H460.352ZM513.032 349.91L538.492 350.35V453.77C538.492 456.68 536.132 459.04 533.222 459.04H516.292C514.492 459.04 513.032 457.58 513.032 455.78C513.032 454.25 512.532 452.9 511.532 451.73C510.532 450.56 509.272 449.85 507.742 449.62L465.992 442.66C463.642 441.78 462.472 440.28 462.472 438.17V388.93C462.472 387.11 463.382 385.7 465.202 384.7L513.032 368.58V349.91ZM512.152 426.9V401.35C512.092 401 511.972 400.71 511.802 400.47C511.622 400.24 511.352 400.05 510.962 399.9C510.582 399.75 510.022 399.69 509.292 399.72C508.562 399.75 507.602 399.91 506.432 400.21L484.062 405.49C482.422 406.43 481.712 407.84 481.952 409.72L482.922 415.8C483.512 417.33 484.512 418.47 485.912 419.24L510.492 427.25L512.162 426.9H512.152Z" fill="#974FA5"/>
</svg>
